<svg width="405" height="300" viewBox="0 0 405 300" fill="none" xmlns="http://www.w3.org/2000/svg">
<g clip-path="url(#clip0_4735_1111)">
<path d="M334.5 147C334.5 178.752 308.537 204.5 276.5 204.5C244.463 204.5 218.5 178.752 218.5 147C218.5 115.248 244.463 89.5 276.5 89.5C308.537 89.5 334.5 115.248 334.5 147Z" stroke="url(#paint0_linear_4735_1111)"/>
<circle cx="276.5" cy="146.5" r="81" stroke="url(#paint1_linear_4735_1111)"/>
<path d="M314.5 147.5C314.5 169.051 297.475 186.5 276.5 186.5C255.525 186.5 238.5 169.051 238.5 147.5C238.5 125.949 255.525 108.5 276.5 108.5C297.475 108.5 314.5 125.949 314.5 147.5Z" stroke="url(#paint2_linear_4735_1111)"/>
<path d="M128 139.959C127.148 139.959 126.303 140.127 125.516 140.453C124.728 140.779 124.012 141.257 123.41 141.86C122.807 142.463 122.328 143.179 122.002 143.966C121.676 144.754 121.508 145.598 121.508 146.451C121.508 147.304 121.676 148.148 122.002 148.936C122.328 149.723 122.807 150.439 123.41 151.042C124.012 151.645 124.728 152.123 125.516 152.449C126.303 152.775 127.148 152.943 128 152.943C129.722 152.943 131.374 152.259 132.591 151.042C133.809 149.824 134.493 148.173 134.493 146.451C134.493 144.729 133.809 143.078 132.591 141.86C131.374 140.643 129.722 139.959 128 139.959ZM123.508 146.451C123.508 145.26 123.981 144.117 124.824 143.274C125.666 142.432 126.809 141.959 128 141.959C129.192 141.959 130.334 142.432 131.177 143.274C132.019 144.117 132.493 145.26 132.493 146.451C132.493 147.642 132.019 148.785 131.177 149.628C130.334 150.47 129.192 150.943 128 150.943C126.809 150.943 125.666 150.47 124.824 149.628C123.981 148.785 123.508 147.642 123.508 146.451Z" fill="url(#paint3_linear_4735_1111)"/>
<path fill-rule="evenodd" clip-rule="evenodd" d="M124.409 133.136C125.463 129.556 130.54 129.556 131.594 133.136L131.782 133.774C131.855 134.024 131.984 134.255 132.158 134.448C132.332 134.642 132.548 134.794 132.788 134.894C133.029 134.994 133.289 135.038 133.549 135.025C133.809 135.011 134.063 134.939 134.292 134.814L134.876 134.496C138.154 132.71 141.744 136.297 139.958 139.577L139.638 140.161C139.514 140.39 139.442 140.643 139.428 140.904C139.414 141.164 139.459 141.424 139.558 141.664C139.658 141.905 139.811 142.12 140.004 142.295C140.198 142.469 140.428 142.597 140.678 142.671L141.316 142.859C144.897 143.913 144.897 148.989 141.316 150.043L140.678 150.231C140.428 150.305 140.198 150.434 140.004 150.608C139.811 150.782 139.658 150.997 139.558 151.238C139.459 151.479 139.414 151.739 139.428 151.999C139.442 152.259 139.514 152.513 139.638 152.742L139.956 153.326C141.744 156.604 138.156 160.194 134.876 158.408L134.292 158.088C134.063 157.963 133.809 157.891 133.549 157.878C133.289 157.864 133.029 157.908 132.788 158.008C132.548 158.108 132.332 158.26 132.158 158.454C131.984 158.648 131.855 158.878 131.782 159.128L131.594 159.766C130.54 163.346 125.463 163.346 124.409 159.766L124.221 159.128C124.148 158.878 124.019 158.648 123.845 158.454C123.671 158.26 123.455 158.108 123.215 158.008C122.974 157.908 122.714 157.864 122.454 157.878C122.194 157.891 121.94 157.963 121.711 158.088L121.127 158.406C117.847 160.194 114.261 156.606 116.045 153.326L116.365 152.742C116.489 152.513 116.561 152.259 116.575 151.999C116.589 151.739 116.544 151.479 116.444 151.238C116.345 150.997 116.192 150.782 115.999 150.608C115.805 150.434 115.575 150.305 115.325 150.231L114.687 150.043C111.106 148.989 111.106 143.913 114.687 142.859L115.325 142.671C115.575 142.597 115.805 142.469 115.999 142.295C116.192 142.12 116.345 141.905 116.444 141.664C116.544 141.424 116.589 141.164 116.575 140.904C116.561 140.643 116.489 140.39 116.365 140.161L116.047 139.577C114.261 136.299 117.847 132.71 121.127 134.494L121.711 134.814C121.94 134.939 122.194 135.011 122.454 135.025C122.714 135.038 122.974 134.994 123.215 134.894C123.455 134.794 123.671 134.642 123.845 134.448C124.019 134.255 124.148 134.024 124.221 133.774L124.409 133.136ZM124.824 143.274C123.981 144.117 123.508 145.26 123.508 146.451C123.508 147.642 123.981 148.785 124.824 149.628C125.666 150.47 126.809 150.943 128 150.943C129.192 150.943 130.334 150.47 131.177 149.628C132.019 148.785 132.493 147.642 132.493 146.451C132.493 145.26 132.019 144.117 131.177 143.274C130.334 142.432 129.192 141.959 128 141.959C126.809 141.959 125.666 142.432 124.824 143.274Z" fill="url(#paint4_linear_4735_1111)"/>
<path d="M128 139.959C127.148 139.959 126.303 140.127 125.516 140.453C124.728 140.779 124.012 141.257 123.41 141.86C122.807 142.463 122.328 143.179 122.002 143.966C121.676 144.754 121.508 145.598 121.508 146.451C121.508 147.304 121.676 148.148 122.002 148.936C122.328 149.723 122.807 150.439 123.41 151.042C124.012 151.645 124.728 152.123 125.516 152.449C126.303 152.775 127.148 152.943 128 152.943C129.722 152.943 131.374 152.259 132.591 151.042C133.809 149.824 134.493 148.173 134.493 146.451C134.493 144.729 133.809 143.078 132.591 141.86C131.374 140.643 129.722 139.959 128 139.959ZM123.508 146.451C123.508 145.26 123.981 144.117 124.824 143.274C125.666 142.432 126.809 141.959 128 141.959C129.192 141.959 130.334 142.432 131.177 143.274C132.019 144.117 132.493 145.26 132.493 146.451C132.493 147.642 132.019 148.785 131.177 149.628C130.334 150.47 129.192 150.943 128 150.943C126.809 150.943 125.666 150.47 124.824 149.628C123.981 148.785 123.508 147.642 123.508 146.451Z" fill="url(#paint5_linear_4735_1111)"/>
<path d="M131.594 133.136C130.54 129.556 125.463 129.556 124.409 133.136L124.221 133.774C124.148 134.024 124.019 134.255 123.845 134.448C123.671 134.642 123.455 134.794 123.215 134.894C122.974 134.994 122.714 135.038 122.454 135.025C122.194 135.011 121.94 134.939 121.711 134.814L121.127 134.494C117.847 132.71 114.261 136.299 116.047 139.577L116.365 140.161C116.489 140.39 116.561 140.643 116.575 140.904C116.589 141.164 116.544 141.424 116.444 141.664C116.345 141.905 116.192 142.12 115.999 142.295C115.805 142.469 115.575 142.597 115.325 142.671L114.687 142.859C111.106 143.913 111.106 148.989 114.687 150.043L115.325 150.231C115.575 150.305 115.805 150.434 115.999 150.608C116.192 150.782 116.345 150.997 116.444 151.238C116.544 151.479 116.589 151.739 116.575 151.999C116.561 152.259 116.489 152.513 116.365 152.742L116.045 153.326C114.261 156.606 117.847 160.194 121.127 158.406L121.711 158.088C121.94 157.963 122.194 157.891 122.454 157.878C122.714 157.864 122.974 157.908 123.215 158.008C123.455 158.108 123.671 158.26 123.845 158.454C124.019 158.648 124.148 158.878 124.221 159.128L124.409 159.766C125.463 163.346 130.54 163.346 131.594 159.766L131.782 159.128C131.855 158.878 131.984 158.648 132.158 158.454C132.332 158.26 132.548 158.108 132.788 158.008C133.029 157.908 133.289 157.864 133.549 157.878C133.809 157.891 134.063 157.963 134.292 158.088L134.876 158.408C138.156 160.194 141.744 156.604 139.956 153.326L139.638 152.742C139.514 152.513 139.442 152.259 139.428 151.999C139.414 151.739 139.459 151.479 139.558 151.238C139.658 150.997 139.811 150.782 140.004 150.608C140.198 150.434 140.428 150.305 140.678 150.231L141.316 150.043C144.897 148.989 144.897 143.913 141.316 142.859L140.678 142.671C140.428 142.597 140.198 142.469 140.004 142.295C139.811 142.12 139.658 141.905 139.558 141.664C139.459 141.424 139.414 141.164 139.428 140.904C139.442 140.643 139.514 140.39 139.638 140.161L139.958 139.577C141.744 136.297 138.154 132.71 134.876 134.496L134.292 134.814C134.063 134.939 133.809 135.011 133.549 135.025C133.289 135.038 133.029 134.994 132.788 134.894C132.548 134.794 132.332 134.642 132.158 134.448C131.984 134.255 131.855 134.024 131.782 133.774L131.594 133.136ZM126.327 133.702C126.819 132.032 129.184 132.032 129.676 133.702L129.864 134.34C130.022 134.877 130.298 135.371 130.671 135.786C131.045 136.202 131.507 136.529 132.024 136.743C132.54 136.956 133.098 137.052 133.656 137.022C134.215 136.992 134.759 136.838 135.25 136.571L135.832 136.251C137.36 135.42 139.032 137.091 138.2 138.621L137.882 139.205C137.615 139.696 137.461 140.24 137.432 140.798C137.402 141.356 137.498 141.914 137.712 142.43C137.926 142.946 138.253 143.408 138.668 143.782C139.084 144.155 139.578 144.431 140.114 144.589L140.75 144.777C142.42 145.269 142.42 147.633 140.75 148.125L140.112 148.313C139.576 148.471 139.082 148.747 138.666 149.121C138.251 149.495 137.924 149.957 137.71 150.474C137.496 150.99 137.401 151.548 137.43 152.106C137.46 152.664 137.615 153.209 137.882 153.7L138.202 154.282C139.032 155.81 137.362 157.482 135.832 156.65L135.25 156.332C134.759 156.064 134.214 155.91 133.656 155.88C133.098 155.851 132.54 155.947 132.023 156.161C131.507 156.375 131.045 156.702 130.671 157.117C130.297 157.533 130.021 158.028 129.864 158.564L129.676 159.2C129.184 160.87 126.819 160.87 126.327 159.2L126.139 158.562C125.981 158.026 125.705 157.532 125.332 157.117C124.958 156.701 124.496 156.375 123.98 156.161C123.464 155.947 122.906 155.851 122.348 155.881C121.79 155.911 121.246 156.065 120.755 156.332L120.171 156.652C118.643 157.482 116.971 155.812 117.803 154.282L118.121 153.7C118.389 153.209 118.543 152.664 118.573 152.106C118.603 151.547 118.508 150.989 118.294 150.472C118.08 149.956 117.753 149.493 117.337 149.119C116.921 148.745 116.427 148.469 115.891 148.311L115.253 148.123C113.583 147.631 113.583 145.267 115.253 144.775L115.891 144.587C116.426 144.429 116.92 144.153 117.335 143.779C117.75 143.406 118.077 142.944 118.291 142.428C118.504 141.912 118.6 141.355 118.571 140.797C118.541 140.24 118.388 139.695 118.121 139.205L117.801 138.621C116.971 137.093 118.641 135.42 120.171 136.253L120.755 136.571C121.246 136.838 121.79 136.992 122.348 137.021C122.906 137.051 123.464 136.955 123.98 136.741C124.496 136.528 124.958 136.201 125.332 135.786C125.705 135.37 125.981 134.876 126.139 134.34L126.327 133.702Z" fill="url(#paint6_linear_4735_1111)"/>
<path d="M128.278 113.947C127.952 114.709 128.304 115.591 129.066 115.917C129.827 116.243 130.709 115.891 131.035 115.129L128.278 113.947ZM159.112 79.8058L158.304 78.5421L159.112 79.8058ZM202.997 67.6355L203.038 66.1361L202.997 67.6355ZM246.133 82.2365L247.011 81.0199L247.011 81.0199L246.133 82.2365ZM273.604 118.559L275.114 101.305L259.416 108.624L273.604 118.559ZM131.035 115.129C137.032 101.138 147.096 89.271 159.92 81.0695L158.304 78.5421C144.973 87.0677 134.512 99.403 128.278 113.947L131.035 115.129ZM159.92 81.0695C172.745 72.8679 187.738 68.7099 202.955 69.135L203.038 66.1361C187.22 65.6943 171.635 70.0166 158.304 78.5421L159.92 81.0695ZM202.955 69.135C218.171 69.56 232.909 74.5485 245.256 83.4531L247.011 81.0199C234.176 71.7635 218.856 66.578 203.038 66.1361L202.955 69.135ZM245.256 83.4531C254 89.7599 261.259 97.8248 266.601 107.076L269.199 105.576C263.647 95.9594 256.101 87.5758 247.011 81.0199L245.256 83.4531Z" fill="url(#paint7_linear_4735_1111)"/>
<path d="M274.936 175.981C275.249 175.214 274.881 174.339 274.114 174.026C273.347 173.713 272.472 174.081 272.159 174.848L274.936 175.981ZM244.703 210.656L245.533 211.905L244.703 210.656ZM201.037 223.59L201.021 225.09L201.037 223.59ZM157.652 209.744L156.796 210.976L156.796 210.976L157.652 209.744ZM129.552 173.907L128.343 191.185L143.911 183.592L129.552 173.907ZM272.159 174.848C266.407 188.942 256.552 200.982 243.873 209.407L245.533 211.905C258.713 203.148 268.957 190.632 274.936 175.981L272.159 174.848ZM243.873 209.407C231.193 217.831 216.275 222.25 201.053 222.09L201.021 225.09C216.845 225.256 232.352 220.662 245.533 211.905L243.873 209.407ZM201.053 222.09C185.831 221.931 171.008 217.2 158.508 208.513L156.796 210.976C169.79 220.007 185.198 224.924 201.021 225.09L201.053 222.09ZM158.508 208.513C149.655 202.359 142.256 194.422 136.754 185.266L134.183 186.811C139.902 196.329 147.593 204.58 156.796 210.976L158.508 208.513Z" fill="url(#paint8_linear_4735_1111)"/>
<path d="M283.162 141.428C283.262 141.33 283.38 141.252 283.511 141.199C283.642 141.145 283.782 141.118 283.924 141.118C284.066 141.118 284.206 141.145 284.337 141.199C284.468 141.252 284.586 141.33 284.685 141.428C285.101 141.836 285.107 142.496 284.7 142.911L276.099 152.78C276.001 152.884 275.883 152.967 275.751 153.026C275.619 153.084 275.476 153.115 275.331 153.118C275.186 153.12 275.042 153.094 274.907 153.041C274.773 152.988 274.652 152.908 274.55 152.808L269.316 147.66C269.115 147.461 269.001 147.192 269.001 146.912C269.001 146.632 269.115 146.364 269.316 146.164C269.416 146.065 269.534 145.987 269.665 145.934C269.796 145.881 269.936 145.853 270.078 145.853C270.22 145.853 270.36 145.881 270.491 145.934C270.622 145.987 270.74 146.065 270.839 146.164L275.279 150.531L283.133 141.459L283.162 141.428Z" fill="url(#paint9_linear_4735_1111)"/>
<path fill-rule="evenodd" clip-rule="evenodd" d="M284.685 141.428C284.586 141.33 284.468 141.252 284.337 141.199C284.206 141.145 284.066 141.118 283.924 141.118C283.782 141.118 283.642 141.145 283.511 141.199C283.38 141.252 283.262 141.33 283.162 141.428L283.133 141.459L275.279 150.531L270.839 146.164C270.74 146.065 270.622 145.987 270.491 145.934C270.36 145.881 270.22 145.853 270.078 145.853C269.936 145.853 269.796 145.881 269.665 145.934C269.534 145.987 269.416 146.065 269.316 146.164C269.115 146.364 269.001 146.632 269.001 146.912C269.001 147.192 269.115 147.461 269.316 147.66L274.55 152.808C274.652 152.908 274.773 152.988 274.907 153.041C275.042 153.094 275.186 153.12 275.331 153.118C275.476 153.115 275.619 153.084 275.751 153.026C275.883 152.967 276.001 152.884 276.099 152.78L284.7 142.911C285.107 142.496 285.101 141.836 284.685 141.428Z" fill="url(#paint10_linear_4735_1111)"/>
<path fill-rule="evenodd" clip-rule="evenodd" d="M277.001 162.451C285.838 162.451 293.001 155.288 293.001 146.451C293.001 137.615 285.838 130.451 277.001 130.451C268.165 130.451 261.001 137.615 261.001 146.451C261.001 155.288 268.165 162.451 277.001 162.451Z" fill="url(#paint11_linear_4735_1111)"/>
<path d="M283.162 141.428C283.262 141.33 283.38 141.252 283.511 141.199C283.642 141.145 283.782 141.118 283.924 141.118C284.066 141.118 284.206 141.145 284.337 141.199C284.468 141.252 284.586 141.33 284.685 141.428C285.101 141.836 285.107 142.496 284.7 142.911L276.099 152.78C276.001 152.884 275.883 152.967 275.751 153.026C275.619 153.084 275.476 153.115 275.331 153.118C275.186 153.12 275.042 153.094 274.907 153.041C274.773 152.988 274.652 152.908 274.55 152.808L269.316 147.66C269.115 147.461 269.001 147.192 269.001 146.912C269.001 146.632 269.115 146.364 269.316 146.164C269.416 146.065 269.534 145.987 269.665 145.934C269.796 145.881 269.936 145.853 270.078 145.853C270.22 145.853 270.36 145.881 270.491 145.934C270.622 145.987 270.74 146.065 270.839 146.164L275.279 150.531L283.133 141.459L283.162 141.428Z" fill="url(#paint12_linear_4735_1111)"/>
<path fill-rule="evenodd" clip-rule="evenodd" d="M284.685 141.428C284.586 141.33 284.468 141.252 284.337 141.199C284.206 141.145 284.066 141.118 283.924 141.118C283.782 141.118 283.642 141.145 283.511 141.199C283.38 141.252 283.262 141.33 283.162 141.428L283.133 141.459L275.279 150.531L270.839 146.164C270.74 146.065 270.622 145.987 270.491 145.934C270.36 145.881 270.22 145.853 270.078 145.853C269.936 145.853 269.796 145.881 269.665 145.934C269.534 145.987 269.416 146.065 269.316 146.164C269.115 146.364 269.001 146.632 269.001 146.912C269.001 147.192 269.115 147.461 269.316 147.66L274.55 152.808C274.652 152.908 274.773 152.988 274.907 153.041C275.042 153.094 275.186 153.12 275.331 153.118C275.476 153.115 275.619 153.084 275.751 153.026C275.883 152.967 276.001 152.884 276.099 152.78L284.7 142.911C285.107 142.496 285.101 141.836 284.685 141.428Z" fill="url(#paint13_linear_4735_1111)"/>
<path fill-rule="evenodd" clip-rule="evenodd" d="M277.001 160.451C284.733 160.451 291.001 154.183 291.001 146.451C291.001 138.719 284.733 132.451 277.001 132.451C269.269 132.451 263.001 138.719 263.001 146.451C263.001 154.183 269.269 160.451 277.001 160.451ZM277.001 162.451C285.838 162.451 293.001 155.288 293.001 146.451C293.001 137.615 285.838 130.451 277.001 130.451C268.165 130.451 261.001 137.615 261.001 146.451C261.001 155.288 268.165 162.451 277.001 162.451Z" fill="url(#paint14_linear_4735_1111)"/>
<path d="M46 134.5C46 133.672 46.6716 133 47.5 133H104.5C105.328 133 106 133.672 106 134.5C106 135.328 105.328 136 104.5 136H47.5C46.6716 136 46 135.328 46 134.5Z" fill="url(#paint15_linear_4735_1111)"/>
<path d="M46 146.5C46 145.672 46.6716 145 47.5 145H100.5C101.328 145 102 145.672 102 146.5C102 147.328 101.328 148 100.5 148H47.5C46.6716 148 46 147.328 46 146.5Z" fill="url(#paint16_linear_4735_1111)"/>
<path d="M46 158.5C46 157.672 46.6716 157 47.5 157H104.5C105.328 157 106 157.672 106 158.5C106 159.328 105.328 160 104.5 160H47.5C46.6716 160 46 159.328 46 158.5Z" fill="url(#paint17_linear_4735_1111)"/>
<path d="M175.07 130.558C171.542 137.995 167.983 145.772 165.025 153.472C168.537 147.368 171.85 140.799 174.931 134.416C177.442 140.706 180.061 146.965 183.019 153.069C180.739 145.431 177.935 137.979 175.07 130.558Z" fill="#374E53"/>
<path d="M220.98 153.069C223.907 147.074 226.603 140.659 229.068 134.416C232.18 140.861 235.4 147.259 238.974 153.472C235.97 145.679 232.488 138.103 228.929 130.558C226.079 137.871 223.229 145.524 220.98 153.069Z" fill="#374E53"/>
<path d="M167.413 157.438C172.635 157.237 179.676 156.478 184.483 155.997C178.012 155.161 170.756 154.541 164.008 154.479C163.777 160.847 168.553 166.393 175.039 166.145C180.292 166.068 185.022 161.218 184.483 156.013C182.403 165.231 169.924 166.006 167.413 157.438Z" fill="#374E53"/>
<path d="M219.516 155.997C224.292 156.478 231.379 157.237 236.586 157.438C234.075 166.006 221.596 165.247 219.516 155.997C218.977 161.203 223.707 166.068 228.96 166.13C235.446 166.393 240.237 160.831 239.991 154.464C233.243 154.541 225.987 155.161 219.516 155.997Z" fill="#374E53"/>
<path d="M202 169.352C203.279 156.044 203.925 142.643 203.016 129.303C205.327 126.561 207.884 123.772 210.796 122.13C218.284 117.405 222.012 128.9 229.114 128.869C232.827 128.885 237.264 126.391 237.033 122.239C236.509 126.112 232.58 127.692 229.114 127.351C223.691 126.453 221.503 119.217 215.587 118.381C210.303 117.668 206.113 121.402 202.723 125.027C202.631 123.865 202.492 122.703 202.384 121.526C203.355 121.371 204.295 120.658 204.926 119.295C203.509 116.227 200.52 116.243 199.088 119.295C199.719 120.643 200.659 121.371 201.63 121.526C201.522 122.672 201.383 123.803 201.291 124.95C196.391 119.713 189.351 115.019 183.05 121.247C180.4 123.416 178.366 126.964 174.885 127.336C171.418 127.676 167.505 126.096 166.966 122.223C166.719 126.391 171.187 128.885 174.885 128.869C179.044 128.931 181.663 125.291 184.575 123.122C190.707 117.684 196.761 124.284 200.967 129.303C200.074 142.643 200.706 156.044 202 169.352Z" fill="url(#paint18_linear_4735_1111)"/>
<rect y="243" width="405" height="188" fill="url(#paint19_linear_4735_1111)"/>
</g>
<defs>
<linearGradient id="paint0_linear_4735_1111" x1="335" y1="146.183" x2="291" y2="147" gradientUnits="userSpaceOnUse">
<stop stop-color="#374E53"/>
<stop offset="1" stop-color="#020617"/>
</linearGradient>
<linearGradient id="paint1_linear_4735_1111" x1="358" y1="145.352" x2="277.681" y2="145.352" gradientUnits="userSpaceOnUse">
<stop stop-color="#314248"/>
<stop offset="1" stop-color="#020617"/>
</linearGradient>
<linearGradient id="paint2_linear_4735_1111" x1="315" y1="146.944" x2="289.5" y2="147" gradientUnits="userSpaceOnUse">
<stop stop-color="#3B5B63"/>
<stop offset="1" stop-color="#020617"/>
</linearGradient>
<linearGradient id="paint3_linear_4735_1111" x1="120.5" y1="134" x2="132.5" y2="157" gradientUnits="userSpaceOnUse">
<stop stop-color="#4F868E"/>
<stop offset="1" stop-color="#374E53"/>
</linearGradient>
<linearGradient id="paint4_linear_4735_1111" x1="120.5" y1="134" x2="132.5" y2="157" gradientUnits="userSpaceOnUse">
<stop stop-color="#4F868E"/>
<stop offset="1" stop-color="#374E53"/>
</linearGradient>
<linearGradient id="paint5_linear_4735_1111" x1="116.668" y1="134.451" x2="139.335" y2="157.785" gradientUnits="userSpaceOnUse">
<stop stop-color="#F3F8F8"/>
<stop offset="1" stop-color="#4F868E"/>
</linearGradient>
<linearGradient id="paint6_linear_4735_1111" x1="116.668" y1="134.451" x2="139.335" y2="157.785" gradientUnits="userSpaceOnUse">
<stop stop-color="#F3F8F8"/>
<stop offset="1" stop-color="#4F868E"/>
</linearGradient>
<linearGradient id="paint7_linear_4735_1111" x1="129.31" y1="119.597" x2="275.019" y2="119.597" gradientUnits="userSpaceOnUse">
<stop stop-color="#314248"/>
<stop offset="1" stop-color="#4F868E"/>
</linearGradient>
<linearGradient id="paint8_linear_4735_1111" x1="273.671" y1="173.135" x2="128.981" y2="173.135" gradientUnits="userSpaceOnUse">
<stop stop-color="#314248"/>
<stop offset="1" stop-color="#4F868E"/>
</linearGradient>
<linearGradient id="paint9_linear_4735_1111" x1="271" y1="132.5" x2="281.5" y2="159.5" gradientUnits="userSpaceOnUse">
<stop stop-color="#4F868E"/>
<stop offset="1" stop-color="#314248"/>
</linearGradient>
<linearGradient id="paint10_linear_4735_1111" x1="271" y1="132.5" x2="281.5" y2="159.5" gradientUnits="userSpaceOnUse">
<stop stop-color="#4F868E"/>
<stop offset="1" stop-color="#314248"/>
</linearGradient>
<linearGradient id="paint11_linear_4735_1111" x1="271" y1="132.5" x2="281.5" y2="159.5" gradientUnits="userSpaceOnUse">
<stop stop-color="#4F868E"/>
<stop offset="1" stop-color="#314248"/>
</linearGradient>
<linearGradient id="paint12_linear_4735_1111" x1="265.668" y1="134.451" x2="288.335" y2="157.785" gradientUnits="userSpaceOnUse">
<stop stop-color="#F3F8F8"/>
<stop offset="1" stop-color="#4F868E"/>
</linearGradient>
<linearGradient id="paint13_linear_4735_1111" x1="265.668" y1="134.451" x2="288.335" y2="157.785" gradientUnits="userSpaceOnUse">
<stop stop-color="#F3F8F8"/>
<stop offset="1" stop-color="#4F868E"/>
</linearGradient>
<linearGradient id="paint14_linear_4735_1111" x1="265.668" y1="134.451" x2="288.335" y2="157.785" gradientUnits="userSpaceOnUse">
<stop stop-color="#F3F8F8"/>
<stop offset="1" stop-color="#4F868E"/>
</linearGradient>
<linearGradient id="paint15_linear_4735_1111" x1="46" y1="134.5" x2="106" y2="134.5" gradientUnits="userSpaceOnUse">
<stop stop-color="#020617"/>
<stop offset="1" stop-color="#D2710D"/>
</linearGradient>
<linearGradient id="paint16_linear_4735_1111" x1="46" y1="146.5" x2="102" y2="146.5" gradientUnits="userSpaceOnUse">
<stop stop-color="#020617"/>
<stop offset="1" stop-color="#E290D8"/>
</linearGradient>
<linearGradient id="paint17_linear_4735_1111" x1="46" y1="158.5" x2="106" y2="158.5" gradientUnits="userSpaceOnUse">
<stop stop-color="#020617"/>
<stop offset="1" stop-color="#50733D"/>
</linearGradient>
<linearGradient id="paint18_linear_4735_1111" x1="201.999" y1="117" x2="201.999" y2="169.352" gradientUnits="userSpaceOnUse">
<stop stop-color="#374E53"/>
<stop offset="1" stop-color="#020617"/>
</linearGradient>
<linearGradient id="paint19_linear_4735_1111" x1="202.5" y1="243" x2="202.5" y2="316.565" gradientUnits="userSpaceOnUse">
<stop stop-color="#020617" stop-opacity="0.05"/>
<stop offset="1" stop-color="#020617"/>
</linearGradient>
<clipPath id="clip0_4735_1111">
<rect width="405" height="420" fill="white" transform="translate(0 1)"/>
</clipPath>
</defs>
</svg>
