<svg width="766" height="200" viewBox="0 0 766 200" fill="none" xmlns="http://www.w3.org/2000/svg">
<g clip-path="url(#clip0_4715_10324)">
<path fill-rule="evenodd" clip-rule="evenodd" d="M227.23 15.5768H218.628L222.386 11.8188C222.686 11.5185 222.686 11.0256 222.386 10.7253C222.086 10.4249 221.601 10.4249 221.3 10.7253L216.225 15.8002C215.925 16.1005 215.925 16.5857 216.225 16.886L221.3 21.9609C221.601 22.2613 222.086 22.2613 222.386 21.9609C222.686 21.6606 222.686 21.1754 222.386 20.8751L218.628 17.117H227.23C227.653 17.117 228 16.7705 228 16.3469C228 15.9234 227.653 15.5768 227.23 15.5768Z" fill="#020617" fill-opacity="0.15"/>
<path fill-rule="evenodd" clip-rule="evenodd" d="M247.77 17.117H256.372L252.614 20.8751C252.314 21.1754 252.314 21.6683 252.614 21.9686C252.914 22.269 253.399 22.269 253.7 21.9686L258.775 16.8937C259.075 16.5934 259.075 16.1082 258.775 15.8079L253.708 10.7253C253.407 10.4249 252.922 10.4249 252.622 10.7253C252.321 11.0256 252.321 11.5107 252.622 11.8111L256.372 15.5768H247.77C247.347 15.5768 247 15.9234 247 16.3469C247 16.7705 247.347 17.117 247.77 17.117Z" fill="#020617" fill-opacity="0.15"/>
<path fill-rule="evenodd" clip-rule="evenodd" d="M289.998 14.8312V11.3045C289.998 11.0045 289.638 10.8579 289.431 11.0712L288.245 12.2579C287.038 11.0512 285.318 10.3579 283.438 10.5245C280.645 10.7779 278.345 13.0245 278.038 15.8179C277.638 19.4312 280.458 22.4979 283.998 22.4979C287.058 22.4979 289.585 20.2046 289.951 17.2446C289.998 16.8446 289.685 16.4979 289.285 16.4979C288.951 16.4979 288.671 16.7446 288.631 17.0712C288.345 19.3979 286.338 21.1979 283.931 21.1645C281.458 21.1312 279.371 19.0445 279.331 16.5645C279.291 13.9646 281.405 11.8312 283.998 11.8312C285.285 11.8312 286.451 12.3579 287.298 13.1979L285.905 14.5912C285.691 14.8045 285.838 15.1645 286.138 15.1645H289.665C289.851 15.1645 289.998 15.0179 289.998 14.8312Z" fill="#020617" fill-opacity="0.15"/>
</g>
<rect x="304" y="2.5" width="212" height="28" rx="14" fill="#020617" fill-opacity="0.05"/>
<rect x="304" y="2.5" width="212" height="28" rx="14" stroke="#020617" stroke-opacity="0.07"/>
<path fill-rule="evenodd" clip-rule="evenodd" d="M325 14.5H324.5V13.5C324.5 12.12 323.38 11 322 11C320.62 11 319.5 12.12 319.5 13.5V14.5H319C318.45 14.5 318 14.95 318 15.5V20.5C318 21.05 318.45 21.5 319 21.5H325C325.55 21.5 326 21.05 326 20.5V15.5C326 14.95 325.55 14.5 325 14.5ZM320.5 14.5V13.5C320.5 12.67 321.17 12 322 12C322.83 12 323.5 12.67 323.5 13.5V14.5H320.5Z" fill="#020617" fill-opacity="0.15"/>
<path d="M338.222 15.5732V21.5H336.95V14.1035H338.153L338.222 15.5732ZM337.962 17.5215L337.374 17.501C337.379 16.9951 337.445 16.528 337.572 16.0996C337.7 15.6667 337.889 15.2907 338.14 14.9717C338.39 14.6527 338.702 14.4066 339.076 14.2334C339.45 14.0557 339.883 13.9668 340.375 13.9668C340.721 13.9668 341.04 14.0169 341.332 14.1172C341.624 14.2129 341.877 14.3656 342.091 14.5752C342.305 14.7848 342.471 15.0537 342.59 15.3818C342.708 15.71 342.768 16.1064 342.768 16.5713V21.5H341.503V16.6328C341.503 16.2454 341.437 15.9355 341.305 15.7031C341.177 15.4707 340.995 15.3021 340.758 15.1973C340.521 15.0879 340.243 15.0332 339.924 15.0332C339.55 15.0332 339.238 15.0993 338.987 15.2314C338.737 15.3636 338.536 15.5459 338.386 15.7783C338.235 16.0107 338.126 16.2773 338.058 16.5781C337.994 16.8743 337.962 17.1888 337.962 17.5215ZM342.754 16.8242L341.906 17.084C341.911 16.6784 341.977 16.2887 342.104 15.915C342.237 15.5413 342.426 15.2087 342.672 14.917C342.923 14.6253 343.23 14.3952 343.595 14.2266C343.959 14.0534 344.376 13.9668 344.846 13.9668C345.242 13.9668 345.593 14.0192 345.898 14.124C346.208 14.2288 346.468 14.3906 346.678 14.6094C346.892 14.8236 347.054 15.0993 347.163 15.4365C347.272 15.7738 347.327 16.1748 347.327 16.6396V21.5H346.056V16.626C346.056 16.2113 345.99 15.89 345.857 15.6621C345.73 15.4297 345.548 15.2679 345.311 15.1768C345.078 15.0811 344.8 15.0332 344.477 15.0332C344.199 15.0332 343.952 15.0811 343.738 15.1768C343.524 15.2725 343.344 15.4046 343.198 15.5732C343.052 15.7373 342.941 15.9264 342.863 16.1406C342.79 16.3548 342.754 16.5827 342.754 16.8242ZM352.561 21.6367C352.046 21.6367 351.578 21.5501 351.159 21.377C350.744 21.1992 350.387 20.9508 350.086 20.6318C349.79 20.3128 349.562 19.9346 349.402 19.4971C349.243 19.0596 349.163 18.5811 349.163 18.0615V17.7744C349.163 17.1729 349.252 16.6374 349.43 16.168C349.607 15.694 349.849 15.293 350.154 14.9648C350.46 14.6367 350.806 14.3883 351.193 14.2197C351.581 14.0511 351.982 13.9668 352.396 13.9668C352.925 13.9668 353.381 14.0579 353.764 14.2402C354.151 14.4225 354.468 14.6777 354.714 15.0059C354.96 15.3294 355.142 15.7122 355.261 16.1543C355.379 16.5918 355.438 17.0703 355.438 17.5898V18.1572H349.915V17.125H354.174V17.0293C354.156 16.7012 354.087 16.3822 353.969 16.0723C353.855 15.7624 353.673 15.5072 353.422 15.3066C353.171 15.1061 352.829 15.0059 352.396 15.0059C352.109 15.0059 351.845 15.0674 351.604 15.1904C351.362 15.3089 351.155 15.4867 350.981 15.7236C350.808 15.9606 350.674 16.25 350.578 16.5918C350.482 16.9336 350.435 17.3278 350.435 17.7744V18.0615C350.435 18.4124 350.482 18.7428 350.578 19.0527C350.678 19.3581 350.822 19.627 351.009 19.8594C351.2 20.0918 351.43 20.2741 351.699 20.4062C351.973 20.5384 352.283 20.6045 352.629 20.6045C353.076 20.6045 353.454 20.5133 353.764 20.3311C354.074 20.1488 354.345 19.9049 354.577 19.5996L355.343 20.208C355.183 20.4495 354.98 20.6797 354.734 20.8984C354.488 21.1172 354.185 21.2949 353.825 21.4316C353.47 21.5684 353.048 21.6367 352.561 21.6367ZM360.234 21.6367C359.719 21.6367 359.252 21.5501 358.833 21.377C358.418 21.1992 358.061 20.9508 357.76 20.6318C357.464 20.3128 357.236 19.9346 357.076 19.4971C356.917 19.0596 356.837 18.5811 356.837 18.0615V17.7744C356.837 17.1729 356.926 16.6374 357.104 16.168C357.281 15.694 357.523 15.293 357.828 14.9648C358.133 14.6367 358.48 14.3883 358.867 14.2197C359.255 14.0511 359.656 13.9668 360.07 13.9668C360.599 13.9668 361.055 14.0579 361.438 14.2402C361.825 14.4225 362.142 14.6777 362.388 15.0059C362.634 15.3294 362.816 15.7122 362.935 16.1543C363.053 16.5918 363.112 17.0703 363.112 17.5898V18.1572H357.589V17.125H361.848V17.0293C361.829 16.7012 361.761 16.3822 361.643 16.0723C361.529 15.7624 361.346 15.5072 361.096 15.3066C360.845 15.1061 360.503 15.0059 360.07 15.0059C359.783 15.0059 359.519 15.0674 359.277 15.1904C359.036 15.3089 358.828 15.4867 358.655 15.7236C358.482 15.9606 358.348 16.25 358.252 16.5918C358.156 16.9336 358.108 17.3278 358.108 17.7744V18.0615C358.108 18.4124 358.156 18.7428 358.252 19.0527C358.352 19.3581 358.496 19.627 358.683 19.8594C358.874 20.0918 359.104 20.2741 359.373 20.4062C359.646 20.5384 359.956 20.6045 360.303 20.6045C360.749 20.6045 361.128 20.5133 361.438 20.3311C361.747 20.1488 362.019 19.9049 362.251 19.5996L363.017 20.208C362.857 20.4495 362.654 20.6797 362.408 20.8984C362.162 21.1172 361.859 21.2949 361.499 21.4316C361.144 21.5684 360.722 21.6367 360.234 21.6367ZM365.693 14.1035L367.313 16.7969L368.954 14.1035H370.438L368.018 17.7539L370.513 21.5H369.05L367.341 18.7246L365.632 21.5H364.162L366.65 17.7539L364.237 14.1035H365.693ZM375.131 14.1035V15.0742H371.132V14.1035H375.131ZM372.485 12.3057H373.75V19.668C373.75 19.9186 373.789 20.1077 373.866 20.2354C373.944 20.363 374.044 20.4473 374.167 20.4883C374.29 20.5293 374.422 20.5498 374.563 20.5498C374.668 20.5498 374.778 20.5407 374.892 20.5225C375.01 20.4997 375.099 20.4814 375.158 20.4678L375.165 21.5C375.065 21.5319 374.933 21.5615 374.769 21.5889C374.609 21.6208 374.415 21.6367 374.188 21.6367C373.878 21.6367 373.593 21.5752 373.333 21.4521C373.073 21.3291 372.866 21.124 372.711 20.8369C372.561 20.5452 372.485 20.1533 372.485 19.6611V12.3057ZM379.934 21.6367C379.419 21.6367 378.951 21.5501 378.532 21.377C378.118 21.1992 377.76 20.9508 377.459 20.6318C377.163 20.3128 376.935 19.9346 376.775 19.4971C376.616 19.0596 376.536 18.5811 376.536 18.0615V17.7744C376.536 17.1729 376.625 16.6374 376.803 16.168C376.98 15.694 377.222 15.293 377.527 14.9648C377.833 14.6367 378.179 14.3883 378.566 14.2197C378.954 14.0511 379.355 13.9668 379.77 13.9668C380.298 13.9668 380.754 14.0579 381.137 14.2402C381.524 14.4225 381.841 14.6777 382.087 15.0059C382.333 15.3294 382.515 15.7122 382.634 16.1543C382.752 16.5918 382.812 17.0703 382.812 17.5898V18.1572H377.288V17.125H381.547V17.0293C381.529 16.7012 381.46 16.3822 381.342 16.0723C381.228 15.7624 381.046 15.5072 380.795 15.3066C380.544 15.1061 380.202 15.0059 379.77 15.0059C379.482 15.0059 379.218 15.0674 378.977 15.1904C378.735 15.3089 378.528 15.4867 378.354 15.7236C378.181 15.9606 378.047 16.25 377.951 16.5918C377.855 16.9336 377.808 17.3278 377.808 17.7744V18.0615C377.808 18.4124 377.855 18.7428 377.951 19.0527C378.051 19.3581 378.195 19.627 378.382 19.8594C378.573 20.0918 378.803 20.2741 379.072 20.4062C379.346 20.5384 379.656 20.6045 380.002 20.6045C380.449 20.6045 380.827 20.5133 381.137 20.3311C381.447 20.1488 381.718 19.9049 381.95 19.5996L382.716 20.208C382.556 20.4495 382.354 20.6797 382.107 20.8984C381.861 21.1172 381.558 21.2949 381.198 21.4316C380.843 21.5684 380.421 21.6367 379.934 21.6367ZM385.803 15.6826V21.5H384.538V14.1035H385.734L385.803 15.6826ZM385.502 17.5215L384.976 17.501C384.98 16.9951 385.055 16.528 385.201 16.0996C385.347 15.6667 385.552 15.2907 385.816 14.9717C386.081 14.6527 386.395 14.4066 386.76 14.2334C387.129 14.0557 387.537 13.9668 387.983 13.9668C388.348 13.9668 388.676 14.0169 388.968 14.1172C389.259 14.2129 389.508 14.3678 389.713 14.582C389.923 14.7962 390.082 15.0742 390.191 15.416C390.301 15.7533 390.355 16.1657 390.355 16.6533V21.5H389.084V16.6396C389.084 16.2523 389.027 15.9424 388.913 15.71C388.799 15.473 388.633 15.3021 388.414 15.1973C388.195 15.0879 387.926 15.0332 387.607 15.0332C387.293 15.0332 387.006 15.0993 386.746 15.2314C386.491 15.3636 386.27 15.5459 386.083 15.7783C385.901 16.0107 385.757 16.2773 385.652 16.5781C385.552 16.8743 385.502 17.1888 385.502 17.5215ZM396.833 19.5381C396.833 19.3558 396.792 19.1872 396.71 19.0322C396.632 18.8727 396.471 18.7292 396.225 18.6016C395.983 18.4694 395.618 18.3555 395.131 18.2598C394.721 18.1732 394.349 18.0706 394.017 17.9521C393.688 17.8337 393.408 17.6901 393.176 17.5215C392.948 17.3529 392.772 17.1546 392.649 16.9268C392.526 16.6989 392.465 16.4323 392.465 16.127C392.465 15.8353 392.529 15.5596 392.656 15.2998C392.788 15.04 392.973 14.8099 393.21 14.6094C393.451 14.4089 393.741 14.2516 394.078 14.1377C394.415 14.0238 394.791 13.9668 395.206 13.9668C395.799 13.9668 396.304 14.0716 396.724 14.2812C397.143 14.4909 397.464 14.7712 397.688 15.1221C397.911 15.4684 398.022 15.8535 398.022 16.2773H396.758C396.758 16.0723 396.696 15.874 396.573 15.6826C396.455 15.4867 396.279 15.3249 396.047 15.1973C395.819 15.0697 395.539 15.0059 395.206 15.0059C394.855 15.0059 394.57 15.0605 394.352 15.1699C394.137 15.2747 393.98 15.4092 393.88 15.5732C393.784 15.7373 393.736 15.9105 393.736 16.0928C393.736 16.2295 393.759 16.3525 393.805 16.4619C393.855 16.5667 393.941 16.6647 394.064 16.7559C394.188 16.8424 394.361 16.9245 394.584 17.002C394.807 17.0794 395.092 17.1569 395.438 17.2344C396.045 17.3711 396.544 17.5352 396.936 17.7266C397.327 17.918 397.619 18.1527 397.811 18.4307C398.002 18.7087 398.098 19.0459 398.098 19.4424C398.098 19.766 398.029 20.0622 397.893 20.3311C397.76 20.5999 397.567 20.8324 397.312 21.0283C397.061 21.2197 396.76 21.3701 396.409 21.4795C396.063 21.5843 395.673 21.6367 395.24 21.6367C394.589 21.6367 394.037 21.5205 393.586 21.2881C393.135 21.0557 392.793 20.7549 392.561 20.3857C392.328 20.0166 392.212 19.627 392.212 19.2168H393.483C393.502 19.5632 393.602 19.8389 393.784 20.0439C393.966 20.2445 394.19 20.388 394.454 20.4746C394.718 20.5566 394.98 20.5977 395.24 20.5977C395.587 20.5977 395.876 20.5521 396.108 20.4609C396.345 20.3698 396.525 20.2445 396.648 20.085C396.771 19.9255 396.833 19.7432 396.833 19.5381ZM401.383 14.1035V21.5H400.111V14.1035H401.383ZM400.016 12.1416C400.016 11.9365 400.077 11.7633 400.2 11.6221C400.328 11.4808 400.515 11.4102 400.761 11.4102C401.002 11.4102 401.187 11.4808 401.314 11.6221C401.447 11.7633 401.513 11.9365 401.513 12.1416C401.513 12.3376 401.447 12.5062 401.314 12.6475C401.187 12.7842 401.002 12.8525 400.761 12.8525C400.515 12.8525 400.328 12.7842 400.2 12.6475C400.077 12.5062 400.016 12.3376 400.016 12.1416ZM403.328 17.8838V17.7266C403.328 17.1934 403.406 16.6989 403.561 16.2432C403.715 15.7829 403.939 15.3841 404.23 15.0469C404.522 14.7051 404.875 14.4408 405.29 14.2539C405.705 14.0625 406.17 13.9668 406.685 13.9668C407.204 13.9668 407.671 14.0625 408.086 14.2539C408.505 14.4408 408.861 14.7051 409.152 15.0469C409.449 15.3841 409.674 15.7829 409.829 16.2432C409.984 16.6989 410.062 17.1934 410.062 17.7266V17.8838C410.062 18.417 409.984 18.9115 409.829 19.3672C409.674 19.8229 409.449 20.2217 409.152 20.5635C408.861 20.9007 408.507 21.165 408.093 21.3564C407.683 21.5433 407.218 21.6367 406.698 21.6367C406.179 21.6367 405.712 21.5433 405.297 21.3564C404.882 21.165 404.527 20.9007 404.23 20.5635C403.939 20.2217 403.715 19.8229 403.561 19.3672C403.406 18.9115 403.328 18.417 403.328 17.8838ZM404.593 17.7266V17.8838C404.593 18.2529 404.636 18.6016 404.723 18.9297C404.809 19.2533 404.939 19.5404 405.112 19.791C405.29 20.0417 405.511 20.2399 405.775 20.3857C406.04 20.527 406.347 20.5977 406.698 20.5977C407.045 20.5977 407.348 20.527 407.607 20.3857C407.872 20.2399 408.09 20.0417 408.264 19.791C408.437 19.5404 408.567 19.2533 408.653 18.9297C408.744 18.6016 408.79 18.2529 408.79 17.8838V17.7266C408.79 17.362 408.744 17.0179 408.653 16.6943C408.567 16.3662 408.435 16.0768 408.257 15.8262C408.084 15.571 407.865 15.3704 407.601 15.2246C407.341 15.0788 407.035 15.0059 406.685 15.0059C406.338 15.0059 406.033 15.0788 405.769 15.2246C405.509 15.3704 405.29 15.571 405.112 15.8262C404.939 16.0768 404.809 16.3662 404.723 16.6943C404.636 17.0179 404.593 17.362 404.593 17.7266ZM413.162 15.6826V21.5H411.897V14.1035H413.094L413.162 15.6826ZM412.861 17.5215L412.335 17.501C412.34 16.9951 412.415 16.528 412.561 16.0996C412.706 15.6667 412.911 15.2907 413.176 14.9717C413.44 14.6527 413.755 14.4066 414.119 14.2334C414.488 14.0557 414.896 13.9668 415.343 13.9668C415.707 13.9668 416.035 14.0169 416.327 14.1172C416.619 14.2129 416.867 14.3678 417.072 14.582C417.282 14.7962 417.441 15.0742 417.551 15.416C417.66 15.7533 417.715 16.1657 417.715 16.6533V21.5H416.443V16.6396C416.443 16.2523 416.386 15.9424 416.272 15.71C416.159 15.473 415.992 15.3021 415.773 15.1973C415.555 15.0879 415.286 15.0332 414.967 15.0332C414.652 15.0332 414.365 15.0993 414.105 15.2314C413.85 15.3636 413.629 15.5459 413.442 15.7783C413.26 16.0107 413.117 16.2773 413.012 16.5781C412.911 16.8743 412.861 17.1888 412.861 17.5215ZM419.906 20.8301C419.906 20.6159 419.972 20.4359 420.104 20.29C420.241 20.1396 420.437 20.0645 420.692 20.0645C420.948 20.0645 421.141 20.1396 421.273 20.29C421.41 20.4359 421.479 20.6159 421.479 20.8301C421.479 21.0397 421.41 21.2174 421.273 21.3633C421.141 21.5091 420.948 21.582 420.692 21.582C420.437 21.582 420.241 21.5091 420.104 21.3633C419.972 21.2174 419.906 21.0397 419.906 20.8301ZM423.492 17.8838V17.7266C423.492 17.1934 423.57 16.6989 423.725 16.2432C423.88 15.7829 424.103 15.3841 424.395 15.0469C424.686 14.7051 425.039 14.4408 425.454 14.2539C425.869 14.0625 426.334 13.9668 426.849 13.9668C427.368 13.9668 427.835 14.0625 428.25 14.2539C428.669 14.4408 429.025 14.7051 429.316 15.0469C429.613 15.3841 429.838 15.7829 429.993 16.2432C430.148 16.6989 430.226 17.1934 430.226 17.7266V17.8838C430.226 18.417 430.148 18.9115 429.993 19.3672C429.838 19.8229 429.613 20.2217 429.316 20.5635C429.025 20.9007 428.672 21.165 428.257 21.3564C427.847 21.5433 427.382 21.6367 426.862 21.6367C426.343 21.6367 425.876 21.5433 425.461 21.3564C425.046 21.165 424.691 20.9007 424.395 20.5635C424.103 20.2217 423.88 19.8229 423.725 19.3672C423.57 18.9115 423.492 18.417 423.492 17.8838ZM424.757 17.7266V17.8838C424.757 18.2529 424.8 18.6016 424.887 18.9297C424.973 19.2533 425.103 19.5404 425.276 19.791C425.454 20.0417 425.675 20.2399 425.939 20.3857C426.204 20.527 426.511 20.5977 426.862 20.5977C427.209 20.5977 427.512 20.527 427.771 20.3857C428.036 20.2399 428.255 20.0417 428.428 19.791C428.601 19.5404 428.731 19.2533 428.817 18.9297C428.909 18.6016 428.954 18.2529 428.954 17.8838V17.7266C428.954 17.362 428.909 17.0179 428.817 16.6943C428.731 16.3662 428.599 16.0768 428.421 15.8262C428.248 15.571 428.029 15.3704 427.765 15.2246C427.505 15.0788 427.2 15.0059 426.849 15.0059C426.502 15.0059 426.197 15.0788 425.933 15.2246C425.673 15.3704 425.454 15.571 425.276 15.8262C425.103 16.0768 424.973 16.3662 424.887 16.6943C424.8 17.0179 424.757 17.362 424.757 17.7266ZM433.326 15.2656V21.5H432.062V14.1035H433.292L433.326 15.2656ZM435.637 14.0625L435.63 15.2383C435.525 15.2155 435.425 15.2018 435.329 15.1973C435.238 15.1882 435.133 15.1836 435.015 15.1836C434.723 15.1836 434.465 15.2292 434.242 15.3203C434.019 15.4115 433.83 15.5391 433.675 15.7031C433.52 15.8672 433.397 16.0632 433.306 16.291C433.219 16.5143 433.162 16.7604 433.135 17.0293L432.779 17.2344C432.779 16.7878 432.823 16.3685 432.909 15.9766C433 15.5846 433.139 15.2383 433.326 14.9375C433.513 14.6322 433.75 14.3952 434.037 14.2266C434.329 14.0534 434.675 13.9668 435.076 13.9668C435.167 13.9668 435.272 13.9782 435.391 14.001C435.509 14.0192 435.591 14.0397 435.637 14.0625ZM441.711 14.1035H442.859V21.3428C442.859 21.9945 442.727 22.5505 442.463 23.0107C442.199 23.471 441.829 23.8197 441.355 24.0566C440.886 24.2982 440.344 24.4189 439.729 24.4189C439.473 24.4189 439.173 24.3779 438.826 24.2959C438.484 24.2184 438.147 24.084 437.814 23.8926C437.486 23.7057 437.211 23.4528 436.987 23.1338L437.65 22.3818C437.96 22.7555 438.284 23.0153 438.621 23.1611C438.963 23.307 439.3 23.3799 439.633 23.3799C440.034 23.3799 440.38 23.3047 440.672 23.1543C440.964 23.0039 441.189 22.7806 441.349 22.4844C441.513 22.1927 441.595 21.8327 441.595 21.4043V15.7305L441.711 14.1035ZM436.618 17.8838V17.7402C436.618 17.1751 436.684 16.6624 436.816 16.2021C436.953 15.7373 437.147 15.3385 437.397 15.0059C437.653 14.6732 437.96 14.418 438.32 14.2402C438.68 14.0579 439.086 13.9668 439.537 13.9668C440.002 13.9668 440.408 14.0488 440.754 14.2129C441.105 14.3724 441.401 14.6071 441.643 14.917C441.889 15.2223 442.082 15.5915 442.224 16.0244C442.365 16.4574 442.463 16.9473 442.518 17.4941V18.123C442.467 18.6654 442.369 19.153 442.224 19.5859C442.082 20.0189 441.889 20.388 441.643 20.6934C441.401 20.9987 441.105 21.2334 440.754 21.3975C440.403 21.557 439.993 21.6367 439.523 21.6367C439.081 21.6367 438.68 21.5433 438.32 21.3564C437.965 21.1696 437.66 20.9076 437.404 20.5703C437.149 20.2331 436.953 19.8366 436.816 19.3809C436.684 18.9206 436.618 18.4215 436.618 17.8838ZM437.883 17.7402V17.8838C437.883 18.2529 437.919 18.5993 437.992 18.9229C438.07 19.2464 438.186 19.5312 438.341 19.7773C438.5 20.0234 438.703 20.2171 438.949 20.3584C439.195 20.4951 439.489 20.5635 439.831 20.5635C440.25 20.5635 440.597 20.4746 440.87 20.2969C441.144 20.1191 441.36 19.8844 441.52 19.5928C441.684 19.3011 441.811 18.9844 441.902 18.6426V16.9951C441.852 16.7445 441.775 16.5029 441.67 16.2705C441.57 16.0335 441.438 15.8239 441.273 15.6416C441.114 15.4548 440.916 15.3066 440.679 15.1973C440.442 15.0879 440.164 15.0332 439.845 15.0332C439.498 15.0332 439.2 15.1061 438.949 15.252C438.703 15.3932 438.5 15.5892 438.341 15.8398C438.186 16.0859 438.07 16.373 437.992 16.7012C437.919 17.0247 437.883 17.3711 437.883 17.7402Z" fill="#020617" fill-opacity="0.25"/>
<path fill-rule="evenodd" clip-rule="evenodd" d="M501.362 14.3401L497.969 14.0456L496.644 10.9259C496.406 10.358 495.592 10.358 495.354 10.9259L494.029 14.0526L490.643 14.3401C490.026 14.3892 489.774 15.1603 490.243 15.5669L492.816 17.7963L492.045 21.1053C491.905 21.7083 492.557 22.185 493.09 21.8625L495.999 20.1098L498.908 21.8695C499.441 22.192 500.093 21.7153 499.953 21.1124L499.182 17.7963L501.755 15.5669C502.224 15.1603 501.979 14.3892 501.362 14.3401ZM495.999 18.7988L493.363 20.3903L494.064 17.3897L491.737 15.3706L494.807 15.1042L495.999 12.2789L497.198 15.1112L500.268 15.3777L497.941 17.3967L498.642 20.3973L495.999 18.7988Z" fill="#020617" fill-opacity="0.15"/>
<rect x="526" y="2.5" width="28" height="28" rx="14" stroke="#E2E8F0" stroke-width="4"/>
<path d="M540 4.46924C536.814 4.47305 533.759 5.74019 531.506 7.99268C529.252 10.2452 527.985 13.2991 527.981 16.4846C527.985 19.6701 529.252 22.7241 531.506 24.9766C533.759 27.2291 536.814 28.4962 540 28.5C543.187 28.4966 546.242 27.2296 548.495 24.977C550.749 22.7244 552.016 19.6703 552.019 16.4846C552.016 13.2991 550.748 10.2452 548.495 7.99268C546.242 5.74019 543.187 4.47305 540 4.46924ZM540 28.0194C536.941 28.016 534.008 26.7996 531.845 24.6372C529.682 22.4747 528.465 19.5428 528.462 16.4846C528.465 13.4264 529.682 10.4945 531.845 8.33207C534.008 6.16961 536.941 4.95324 540 4.94985C543.059 4.95324 545.992 6.16961 548.155 8.33207C550.319 10.4945 551.535 13.4264 551.539 16.4846C551.535 19.5428 550.319 22.4747 548.155 24.6372C545.992 26.7996 543.059 28.016 540 28.0194Z" fill="#4F868E"/>
<path d="M540 28.0194C536.941 28.016 534.008 26.7996 531.845 24.6372C529.682 22.4747 528.465 19.5428 528.462 16.4846C528.465 13.4264 529.682 10.4945 531.845 8.33207C534.008 6.16961 536.941 4.95324 540 4.94985C543.059 4.95324 545.992 6.16961 548.155 8.33207C550.319 10.4945 551.535 13.4264 551.539 16.4846C551.535 19.5428 550.319 22.4747 548.155 24.6372C545.992 26.7996 543.059 28.016 540 28.0194Z" fill="#4F868E"/>
<path d="M543.128 11.4798C542.524 11.4839 541.929 11.6251 541.387 11.8926C540.845 12.1601 540.371 12.547 540 13.0242C539.63 12.547 539.156 12.1601 538.614 11.8926C538.073 11.6251 537.478 11.484 536.873 11.4798C534.62 11.4798 532.789 13.4183 532.789 15.8053V20.5346C532.789 20.7895 532.89 21.034 533.07 21.2143C533.251 21.3945 533.495 21.4958 533.75 21.4958C534.005 21.4958 534.25 21.3945 534.43 21.2143C534.61 21.034 534.712 20.7895 534.712 20.5346V15.8021C534.712 14.4756 535.684 13.3991 536.88 13.3991C538.075 13.3991 539.048 14.4788 539.048 15.8021V20.5314C539.048 20.7863 539.149 21.0308 539.33 21.2111C539.51 21.3913 539.755 21.4926 540.01 21.4926C540.265 21.4926 540.509 21.3913 540.69 21.2111C540.87 21.0308 540.971 20.7863 540.971 20.5314V15.8021C540.971 14.4756 541.944 13.3991 543.14 13.3991C544.335 13.3991 545.308 14.4788 545.308 15.8021V20.5314C545.308 20.7863 545.409 21.0308 545.589 21.2111C545.77 21.3913 546.014 21.4926 546.269 21.4926C546.524 21.4926 546.769 21.3913 546.949 21.2111C547.13 21.0308 547.231 20.7863 547.231 20.5314V15.8021C547.213 13.4183 545.382 11.4798 543.128 11.4798Z" fill="#F3F8F8"/>
<g opacity="0.75" filter="url(#filter0_f_4715_10324)">
<path d="M190 66.5C190 59.8726 195.373 54.5 202 54.5H565C571.627 54.5 577 59.8726 577 66.5V139.5C577 146.127 571.627 151.5 565 151.5H202C195.373 151.5 190 146.127 190 139.5V66.5Z" fill="white"/>
<path d="M202 52C193.992 52 187.5 58.4919 187.5 66.5V139.5C187.5 147.508 193.992 154 202 154H565C573.008 154 579.5 147.508 579.5 139.5V66.5C579.5 58.4919 573.008 52 565 52H202Z" stroke="url(#paint0_linear_4715_10324)" stroke-width="5"/>
</g>
<rect x="89" y="79.5" width="100" height="1" fill="url(#paint1_linear_4715_10324)"/>
<rect x="69" y="94.5" width="120" height="1" fill="url(#paint2_linear_4715_10324)"/>
<rect x="46" y="109.5" width="143" height="1" fill="url(#paint3_linear_4715_10324)"/>
<rect x="109" y="124.5" width="80" height="1" fill="url(#paint4_linear_4715_10324)"/>
<g clip-path="url(#clip1_4715_10324)">
<path d="M189 66.5C189 59.8726 194.373 54.5 201 54.5H565C571.627 54.5 577 59.8726 577 66.5V138.5C577 145.127 571.627 150.5 565 150.5H201C194.373 150.5 189 145.127 189 138.5V66.5Z" fill="white"/>
<mask id="path-19-inside-1_4715_10324" fill="white">
<path d="M189 54.5H577V102.5H189V54.5Z"/>
</mask>
<path d="M577 101.5H189V103.5H577V101.5Z" fill="#F1F5F9" mask="url(#path-19-inside-1_4715_10324)"/>
<path d="M206.337 81.5V71.378C206.37 71.378 206.468 71.3803 206.631 71.385C206.799 71.385 207.002 71.385 207.24 71.385C207.478 71.3803 207.725 71.3803 207.982 71.385C208.239 71.385 208.474 71.3873 208.689 71.392C209.93 71.4107 210.936 71.6137 211.706 72.001C212.481 72.3837 213.048 72.9413 213.407 73.674C213.771 74.4067 213.953 75.3073 213.953 76.376C213.953 77.496 213.757 78.4363 213.365 79.197C212.978 79.9577 212.385 80.5317 211.587 80.919C210.794 81.3063 209.783 81.5 208.556 81.5H206.337ZM207.667 80.387H208.556C209.391 80.387 210.11 80.2587 210.712 80.002C211.314 79.7407 211.776 79.3183 212.098 78.735C212.425 78.1517 212.588 77.3723 212.588 76.397C212.588 75.4217 212.429 74.6493 212.112 74.08C211.799 73.5107 211.347 73.1047 210.754 72.862C210.161 72.6147 209.447 72.491 208.612 72.491H207.667V80.387ZM218.746 81.64C218.079 81.64 217.495 81.4977 216.996 81.213C216.501 80.9237 216.116 80.5013 215.841 79.946C215.566 79.3907 215.428 78.7117 215.428 77.909C215.428 77.153 215.556 76.4903 215.813 75.921C216.07 75.3517 216.445 74.9107 216.94 74.598C217.435 74.2807 218.039 74.122 218.753 74.122C219.42 74.122 219.999 74.269 220.489 74.563C220.979 74.8523 221.359 75.2793 221.63 75.844C221.905 76.4087 222.043 77.097 222.043 77.909C222.043 78.6463 221.917 79.295 221.665 79.855C221.413 80.415 221.042 80.8537 220.552 81.171C220.067 81.4837 219.465 81.64 218.746 81.64ZM218.753 80.618C219.182 80.618 219.546 80.5083 219.845 80.289C220.144 80.0697 220.37 79.7547 220.524 79.344C220.683 78.9333 220.762 78.4457 220.762 77.881C220.762 77.363 220.692 76.8987 220.552 76.488C220.417 76.0727 220.202 75.7437 219.908 75.501C219.614 75.2583 219.229 75.137 218.753 75.137C218.314 75.137 217.943 75.2467 217.64 75.466C217.337 75.6807 217.106 75.9933 216.947 76.404C216.793 76.8147 216.716 77.307 216.716 77.881C216.716 78.3897 216.784 78.8517 216.919 79.267C217.059 79.6823 217.278 80.0113 217.577 80.254C217.88 80.4967 218.272 80.618 218.753 80.618ZM227.226 81.5V74.262H228.479V75.312C228.596 75.1113 228.757 74.9223 228.962 74.745C229.172 74.5677 229.424 74.4253 229.718 74.318C230.017 74.2107 230.36 74.157 230.747 74.157C231.205 74.157 231.625 74.248 232.007 74.43C232.395 74.612 232.703 74.8967 232.931 75.284C233.165 75.6667 233.281 76.1613 233.281 76.768V81.5H231.986V76.894C231.986 76.3293 231.837 75.9117 231.538 75.641C231.244 75.3657 230.862 75.228 230.39 75.228C230.064 75.228 229.758 75.2817 229.473 75.389C229.189 75.4917 228.958 75.6503 228.78 75.865C228.603 76.075 228.514 76.341 228.514 76.663V81.5H227.226ZM238.274 81.64C237.607 81.64 237.024 81.4977 236.524 81.213C236.03 80.9237 235.645 80.5013 235.369 79.946C235.094 79.3907 234.956 78.7117 234.956 77.909C234.956 77.153 235.085 76.4903 235.341 75.921C235.598 75.3517 235.974 74.9107 236.468 74.598C236.963 74.2807 237.567 74.122 238.281 74.122C238.949 74.122 239.527 74.269 240.017 74.563C240.507 74.8523 240.888 75.2793 241.158 75.844C241.434 76.4087 241.571 77.097 241.571 77.909C241.571 78.6463 241.445 79.295 241.193 79.855C240.941 80.415 240.57 80.8537 240.08 81.171C239.595 81.4837 238.993 81.64 238.274 81.64ZM238.281 80.618C238.711 80.618 239.075 80.5083 239.373 80.289C239.672 80.0697 239.898 79.7547 240.052 79.344C240.211 78.9333 240.29 78.4457 240.29 77.881C240.29 77.363 240.22 76.8987 240.08 76.488C239.945 76.0727 239.73 75.7437 239.436 75.501C239.142 75.2583 238.757 75.137 238.281 75.137C237.843 75.137 237.472 75.2467 237.168 75.466C236.865 75.6807 236.634 75.9933 236.475 76.404C236.321 76.8147 236.244 77.307 236.244 77.881C236.244 78.3897 236.312 78.8517 236.447 79.267C236.587 79.6823 236.807 80.0113 237.105 80.254C237.409 80.4967 237.801 80.618 238.281 80.618ZM245.687 81.535C245.188 81.535 244.801 81.4673 244.525 81.332C244.25 81.1967 244.056 80.996 243.944 80.73C243.837 80.464 243.783 80.1373 243.783 79.75V75.207H242.607V74.262H243.818L244.133 72.155H245.085V74.255H246.716V75.207H245.085V79.708C245.085 79.9647 245.111 80.1537 245.162 80.275C245.218 80.3917 245.309 80.4663 245.435 80.499C245.561 80.5317 245.739 80.548 245.967 80.548H246.758V81.416C246.67 81.4487 246.534 81.4767 246.352 81.5C246.175 81.5233 245.953 81.535 245.687 81.535ZM254.624 81.64C254.12 81.64 253.651 81.563 253.217 81.409C252.788 81.2503 252.431 81.0053 252.146 80.674C251.861 80.338 251.684 79.911 251.614 79.393H252.79C252.851 79.6777 252.967 79.9157 253.14 80.107C253.313 80.2937 253.525 80.436 253.777 80.534C254.034 80.6273 254.314 80.674 254.617 80.674C255.107 80.674 255.501 80.583 255.8 80.401C256.099 80.219 256.248 79.939 256.248 79.561C256.248 79.295 256.169 79.0827 256.01 78.924C255.856 78.7607 255.613 78.6417 255.282 78.567L253.784 78.196C253.201 78.056 252.734 77.8367 252.384 77.538C252.039 77.2393 251.864 76.8217 251.859 76.285C251.859 75.8603 251.962 75.487 252.167 75.165C252.372 74.843 252.678 74.5887 253.084 74.402C253.495 74.2153 254.006 74.122 254.617 74.122C255.406 74.122 256.04 74.2993 256.521 74.654C257.002 75.004 257.254 75.5197 257.277 76.201H256.129C256.082 75.8557 255.928 75.5827 255.667 75.382C255.406 75.1767 255.051 75.074 254.603 75.074C254.146 75.074 253.77 75.1673 253.476 75.354C253.187 75.536 253.042 75.8207 253.042 76.208C253.042 76.4647 253.145 76.6677 253.35 76.817C253.56 76.9617 253.863 77.083 254.26 77.181L255.716 77.545C256.047 77.6337 256.323 77.7503 256.542 77.895C256.761 78.0397 256.934 78.2007 257.06 78.378C257.186 78.5553 257.275 78.742 257.326 78.938C257.382 79.1293 257.41 79.3137 257.41 79.491C257.41 79.9343 257.3 80.317 257.081 80.639C256.862 80.9563 256.544 81.2037 256.129 81.381C255.714 81.5537 255.212 81.64 254.624 81.64ZM262.231 81.64C261.559 81.64 260.966 81.493 260.453 81.199C259.94 80.905 259.538 80.4827 259.249 79.932C258.96 79.3813 258.815 78.721 258.815 77.951C258.815 77.1903 258.946 76.523 259.207 75.949C259.468 75.375 259.846 74.927 260.341 74.605C260.84 74.283 261.44 74.122 262.14 74.122C262.821 74.122 263.398 74.269 263.869 74.563C264.34 74.857 264.697 75.2723 264.94 75.809C265.187 76.341 265.311 76.9733 265.311 77.706V78.182H260.124C260.124 78.6393 260.199 79.0547 260.348 79.428C260.502 79.7967 260.733 80.0907 261.041 80.31C261.349 80.5293 261.739 80.639 262.21 80.639C262.672 80.639 263.069 80.5317 263.4 80.317C263.736 80.1023 263.951 79.792 264.044 79.386H265.262C265.178 79.876 264.982 80.289 264.674 80.625C264.371 80.961 264.004 81.2153 263.575 81.388C263.15 81.556 262.702 81.64 262.231 81.64ZM260.131 77.307H264.065C264.065 76.8917 263.995 76.5183 263.855 76.187C263.715 75.851 263.5 75.5873 263.211 75.396C262.926 75.2 262.567 75.102 262.133 75.102C261.68 75.102 261.305 75.2117 261.006 75.431C260.707 75.6457 260.486 75.9233 260.341 76.264C260.196 76.6 260.126 76.9477 260.131 77.307ZM268.999 81.591C268.607 81.591 268.289 81.5373 268.047 81.43C267.809 81.3227 267.624 81.178 267.494 80.996C267.368 80.814 267.281 80.6063 267.235 80.373C267.193 80.135 267.172 79.89 267.172 79.638V71.098H268.446V79.512C268.446 79.876 268.516 80.149 268.656 80.331C268.8 80.513 269.001 80.6133 269.258 80.632L269.65 80.639V81.479C269.542 81.5117 269.43 81.5373 269.314 81.556C269.197 81.5793 269.092 81.591 268.999 81.591ZM273.102 81.591C272.71 81.591 272.393 81.5373 272.15 81.43C271.912 81.3227 271.728 81.178 271.597 80.996C271.471 80.814 271.385 80.6063 271.338 80.373C271.296 80.135 271.275 79.89 271.275 79.638V71.098H272.549V79.512C272.549 79.876 272.619 80.149 272.759 80.331C272.904 80.513 273.104 80.6133 273.361 80.632L273.753 80.639V81.479C273.646 81.5117 273.534 81.5373 273.417 81.556C273.3 81.5793 273.195 81.591 273.102 81.591ZM274.701 82.039L278.201 71.378H279.209L275.702 82.039H274.701ZM283.165 81.64C282.661 81.64 282.192 81.563 281.758 81.409C281.329 81.2503 280.972 81.0053 280.687 80.674C280.403 80.338 280.225 79.911 280.155 79.393H281.331C281.392 79.6777 281.509 79.9157 281.681 80.107C281.854 80.2937 282.066 80.436 282.318 80.534C282.575 80.6273 282.855 80.674 283.158 80.674C283.648 80.674 284.043 80.583 284.341 80.401C284.64 80.219 284.789 79.939 284.789 79.561C284.789 79.295 284.71 79.0827 284.551 78.924C284.397 78.7607 284.155 78.6417 283.823 78.567L282.325 78.196C281.742 78.056 281.275 77.8367 280.925 77.538C280.58 77.2393 280.405 76.8217 280.4 76.285C280.4 75.8603 280.503 75.487 280.708 75.165C280.914 74.843 281.219 74.5887 281.625 74.402C282.036 74.2153 282.547 74.122 283.158 74.122C283.947 74.122 284.582 74.2993 285.062 74.654C285.543 75.004 285.795 75.5197 285.818 76.201H284.67C284.624 75.8557 284.47 75.5827 284.208 75.382C283.947 75.1767 283.592 75.074 283.144 75.074C282.687 75.074 282.311 75.1673 282.017 75.354C281.728 75.536 281.583 75.8207 281.583 76.208C281.583 76.4647 281.686 76.6677 281.891 76.817C282.101 76.9617 282.405 77.083 282.801 77.181L284.257 77.545C284.589 77.6337 284.864 77.7503 285.083 77.895C285.303 78.0397 285.475 78.2007 285.601 78.378C285.727 78.5553 285.816 78.742 285.867 78.938C285.923 79.1293 285.951 79.3137 285.951 79.491C285.951 79.9343 285.842 80.317 285.622 80.639C285.403 80.9563 285.086 81.2037 284.67 81.381C284.255 81.5537 283.753 81.64 283.165 81.64ZM287.713 81.5V71.098H288.973V75.326C289.095 75.1253 289.258 74.9387 289.463 74.766C289.669 74.5887 289.918 74.4463 290.212 74.339C290.506 74.227 290.847 74.171 291.234 74.171C291.706 74.171 292.133 74.2597 292.515 74.437C292.898 74.6097 293.201 74.857 293.425 75.179C293.649 75.501 293.761 75.8837 293.761 76.327V81.5H292.466V76.586C292.466 76.152 292.317 75.8183 292.018 75.585C291.724 75.347 291.339 75.228 290.863 75.228C290.541 75.228 290.238 75.2817 289.953 75.389C289.669 75.4917 289.438 75.6503 289.26 75.865C289.088 76.075 289.001 76.3433 289.001 76.67V81.5H287.713ZM297.852 81.64C297.381 81.64 296.966 81.5583 296.606 81.395C296.252 81.227 295.972 80.9867 295.766 80.674C295.566 80.3613 295.465 79.9833 295.465 79.54C295.465 78.7373 295.745 78.14 296.305 77.748C296.865 77.356 297.764 77.146 299 77.118L300.288 77.083V76.516C300.288 76.0727 300.155 75.7227 299.889 75.466C299.623 75.2047 299.213 75.074 298.657 75.074C298.242 75.0787 297.876 75.1767 297.558 75.368C297.241 75.5593 297.038 75.872 296.949 76.306H295.808C295.836 75.8347 295.967 75.438 296.2 75.116C296.438 74.7893 296.772 74.542 297.201 74.374C297.631 74.206 298.137 74.122 298.72 74.122C299.35 74.122 299.873 74.2107 300.288 74.388C300.708 74.5653 301.021 74.8267 301.226 75.172C301.436 75.5173 301.541 75.942 301.541 76.446V81.5H300.435L300.337 80.142C300.062 80.7067 299.707 81.0987 299.273 81.318C298.844 81.5327 298.37 81.64 297.852 81.64ZM298.237 80.709C298.485 80.709 298.727 80.6647 298.965 80.576C299.208 80.4873 299.427 80.3683 299.623 80.219C299.824 80.065 299.985 79.8947 300.106 79.708C300.228 79.5167 300.288 79.3207 300.288 79.12V77.881L299.217 77.902C298.662 77.9113 298.2 77.9673 297.831 78.07C297.463 78.1727 297.185 78.3337 296.998 78.553C296.812 78.7723 296.718 79.0593 296.718 79.414C296.718 79.82 296.861 80.1373 297.145 80.366C297.43 80.5947 297.794 80.709 298.237 80.709ZM303.631 81.5V74.262H304.863V75.655C304.984 75.3097 305.154 75.025 305.374 74.801C305.593 74.5723 305.843 74.402 306.123 74.29C306.407 74.178 306.701 74.122 307.005 74.122C307.112 74.122 307.217 74.129 307.32 74.143C307.422 74.157 307.502 74.1803 307.558 74.213V75.466C307.488 75.4333 307.397 75.4123 307.285 75.403C307.177 75.389 307.086 75.382 307.012 75.382C306.722 75.3633 306.452 75.382 306.2 75.438C305.948 75.4893 305.726 75.5803 305.535 75.711C305.343 75.8417 305.192 76.0143 305.08 76.229C304.972 76.439 304.919 76.6957 304.919 76.999V81.5H303.631ZM312.119 81.64C311.447 81.64 310.854 81.493 310.341 81.199C309.828 80.905 309.426 80.4827 309.137 79.932C308.848 79.3813 308.703 78.721 308.703 77.951C308.703 77.1903 308.834 76.523 309.095 75.949C309.356 75.375 309.734 74.927 310.229 74.605C310.728 74.283 311.328 74.122 312.028 74.122C312.709 74.122 313.286 74.269 313.757 74.563C314.228 74.857 314.585 75.2723 314.828 75.809C315.075 76.341 315.199 76.9733 315.199 77.706V78.182H310.012C310.012 78.6393 310.087 79.0547 310.236 79.428C310.39 79.7967 310.621 80.0907 310.929 80.31C311.237 80.5293 311.627 80.639 312.098 80.639C312.56 80.639 312.957 80.5317 313.288 80.317C313.624 80.1023 313.839 79.792 313.932 79.386H315.15C315.066 79.876 314.87 80.289 314.562 80.625C314.259 80.961 313.892 81.2153 313.463 81.388C313.038 81.556 312.59 81.64 312.119 81.64ZM310.019 77.307H313.953C313.953 76.8917 313.883 76.5183 313.743 76.187C313.603 75.851 313.388 75.5873 313.099 75.396C312.814 75.2 312.455 75.102 312.021 75.102C311.568 75.102 311.193 75.2117 310.894 75.431C310.595 75.6457 310.374 75.9233 310.229 76.264C310.084 76.6 310.014 76.9477 310.019 77.307ZM320.452 81.5V74.262H321.698V75.312C321.899 74.9947 322.174 74.717 322.524 74.479C322.874 74.241 323.329 74.122 323.889 74.122C324.15 74.122 324.416 74.1663 324.687 74.255C324.962 74.3437 325.214 74.4767 325.443 74.654C325.672 74.8313 325.849 75.0483 325.975 75.305C326.199 74.9503 326.502 74.6657 326.885 74.451C327.268 74.2317 327.699 74.122 328.18 74.122C328.432 74.122 328.696 74.1617 328.971 74.241C329.246 74.3157 329.501 74.451 329.734 74.647C329.972 74.8383 330.166 75.1067 330.315 75.452C330.464 75.7927 330.539 76.2313 330.539 76.768V81.5H329.237V76.894C329.237 76.4553 329.167 76.117 329.027 75.879C328.887 75.6363 328.703 75.466 328.474 75.368C328.25 75.27 328.01 75.221 327.753 75.221C327.529 75.221 327.291 75.2653 327.039 75.354C326.787 75.4427 326.572 75.592 326.395 75.802C326.218 76.012 326.129 76.299 326.129 76.663V81.5H324.841V76.516C324.841 76.2313 324.764 75.9933 324.61 75.802C324.461 75.6107 324.272 75.466 324.043 75.368C323.819 75.27 323.595 75.221 323.371 75.221C323.124 75.221 322.874 75.27 322.622 75.368C322.375 75.466 322.165 75.6223 321.992 75.837C321.824 76.047 321.74 76.3223 321.74 76.663V81.5H320.452ZM333.124 83.81C332.699 83.81 332.408 83.7797 332.249 83.719C332.09 83.6583 332.011 83.628 332.011 83.628V82.788L332.753 82.802C333.019 82.8113 333.241 82.7927 333.418 82.746C333.595 82.6993 333.738 82.6363 333.845 82.557C333.952 82.4777 334.034 82.389 334.09 82.291C334.151 82.193 334.2 82.0997 334.237 82.011L334.489 81.325L331.661 74.262H332.97L335.105 79.848L337.226 74.262H338.493L335.448 82.046C335.257 82.5033 335.044 82.8603 334.811 83.117C334.582 83.3737 334.326 83.5533 334.041 83.656C333.761 83.7587 333.455 83.81 333.124 83.81ZM343.385 83.754V74.262H344.673L344.687 75.522C344.771 75.3727 344.878 75.2163 345.009 75.053C345.144 74.8897 345.307 74.738 345.499 74.598C345.695 74.458 345.921 74.3437 346.178 74.255C346.439 74.1663 346.735 74.122 347.067 74.122C347.645 74.122 348.154 74.255 348.593 74.521C349.036 74.7823 349.381 75.1837 349.629 75.725C349.876 76.2663 350 76.9523 350 77.783C350 78.6137 349.878 79.316 349.636 79.89C349.398 80.4593 349.052 80.8933 348.6 81.192C348.147 81.4907 347.601 81.64 346.962 81.64C346.64 81.64 346.353 81.5933 346.101 81.5C345.853 81.4113 345.636 81.2947 345.45 81.15C345.268 81.0007 345.114 80.842 344.988 80.674C344.866 80.506 344.766 80.345 344.687 80.191V83.754H343.385ZM346.717 80.632C347.314 80.632 347.802 80.4057 348.18 79.953C348.558 79.4957 348.747 78.7863 348.747 77.825C348.747 76.999 348.574 76.3433 348.229 75.858C347.883 75.3727 347.379 75.13 346.717 75.13C346.045 75.13 345.536 75.3797 345.191 75.879C344.845 76.3737 344.673 77.0223 344.673 77.825C344.673 78.343 344.75 78.8143 344.904 79.239C345.058 79.6637 345.286 80.002 345.59 80.254C345.893 80.506 346.269 80.632 346.717 80.632ZM354.854 81.64C354.182 81.64 353.589 81.493 353.076 81.199C352.562 80.905 352.161 80.4827 351.872 79.932C351.582 79.3813 351.438 78.721 351.438 77.951C351.438 77.1903 351.568 76.523 351.83 75.949C352.091 75.375 352.469 74.927 352.964 74.605C353.463 74.283 354.063 74.122 354.763 74.122C355.444 74.122 356.02 74.269 356.492 74.563C356.963 74.857 357.32 75.2723 357.563 75.809C357.81 76.341 357.934 76.9733 357.934 77.706V78.182H352.747C352.747 78.6393 352.821 79.0547 352.971 79.428C353.125 79.7967 353.356 80.0907 353.664 80.31C353.972 80.5293 354.361 80.639 354.833 80.639C355.295 80.639 355.691 80.5317 356.023 80.317C356.359 80.1023 356.573 79.792 356.667 79.386H357.885C357.801 79.876 357.605 80.289 357.297 80.625C356.993 80.961 356.627 81.2153 356.198 81.388C355.773 81.556 355.325 81.64 354.854 81.64ZM352.754 77.307H356.688C356.688 76.8917 356.618 76.5183 356.478 76.187C356.338 75.851 356.123 75.5873 355.834 75.396C355.549 75.2 355.19 75.102 354.756 75.102C354.303 75.102 353.927 75.2117 353.629 75.431C353.33 75.6457 353.108 75.9233 352.964 76.264C352.819 76.6 352.749 76.9477 352.754 77.307ZM359.794 81.5V74.262H361.026V75.655C361.148 75.3097 361.318 75.025 361.537 74.801C361.757 74.5723 362.006 74.402 362.286 74.29C362.571 74.178 362.865 74.122 363.168 74.122C363.276 74.122 363.381 74.129 363.483 74.143C363.586 74.157 363.665 74.1803 363.721 74.213V75.466C363.651 75.4333 363.56 75.4123 363.448 75.403C363.341 75.389 363.25 75.382 363.175 75.382C362.886 75.3633 362.615 75.382 362.363 75.438C362.111 75.4893 361.89 75.5803 361.698 75.711C361.507 75.8417 361.355 76.0143 361.243 76.229C361.136 76.439 361.082 76.6957 361.082 76.999V81.5H359.794ZM367.896 81.64C367.392 81.64 366.923 81.563 366.489 81.409C366.06 81.2503 365.703 81.0053 365.418 80.674C365.133 80.338 364.956 79.911 364.886 79.393H366.062C366.123 79.6777 366.239 79.9157 366.412 80.107C366.585 80.2937 366.797 80.436 367.049 80.534C367.306 80.6273 367.586 80.674 367.889 80.674C368.379 80.674 368.773 80.583 369.072 80.401C369.371 80.219 369.52 79.939 369.52 79.561C369.52 79.295 369.441 79.0827 369.282 78.924C369.128 78.7607 368.885 78.6417 368.554 78.567L367.056 78.196C366.473 78.056 366.006 77.8367 365.656 77.538C365.311 77.2393 365.136 76.8217 365.131 76.285C365.131 75.8603 365.234 75.487 365.439 75.165C365.644 74.843 365.95 74.5887 366.356 74.402C366.767 74.2153 367.278 74.122 367.889 74.122C368.678 74.122 369.312 74.2993 369.793 74.654C370.274 75.004 370.526 75.5197 370.549 76.201H369.401C369.354 75.8557 369.2 75.5827 368.939 75.382C368.678 75.1767 368.323 75.074 367.875 75.074C367.418 75.074 367.042 75.1673 366.748 75.354C366.459 75.536 366.314 75.8207 366.314 76.208C366.314 76.4647 366.417 76.6677 366.622 76.817C366.832 76.9617 367.135 77.083 367.532 77.181L368.988 77.545C369.319 77.6337 369.595 77.7503 369.814 77.895C370.033 78.0397 370.206 78.2007 370.332 78.378C370.458 78.5553 370.547 78.742 370.598 78.938C370.654 79.1293 370.682 79.3137 370.682 79.491C370.682 79.9343 370.572 80.317 370.353 80.639C370.134 80.9563 369.816 81.2037 369.401 81.381C368.986 81.5537 368.484 81.64 367.896 81.64ZM375.342 81.64C374.675 81.64 374.091 81.4977 373.592 81.213C373.097 80.9237 372.712 80.5013 372.437 79.946C372.162 79.3907 372.024 78.7117 372.024 77.909C372.024 77.153 372.152 76.4903 372.409 75.921C372.666 75.3517 373.041 74.9107 373.536 74.598C374.031 74.2807 374.635 74.122 375.349 74.122C376.016 74.122 376.595 74.269 377.085 74.563C377.575 74.8523 377.955 75.2793 378.226 75.844C378.501 76.4087 378.639 77.097 378.639 77.909C378.639 78.6463 378.513 79.295 378.261 79.855C378.009 80.415 377.638 80.8537 377.148 81.171C376.663 81.4837 376.061 81.64 375.342 81.64ZM375.349 80.618C375.778 80.618 376.142 80.5083 376.441 80.289C376.74 80.0697 376.966 79.7547 377.12 79.344C377.279 78.9333 377.358 78.4457 377.358 77.881C377.358 77.363 377.288 76.8987 377.148 76.488C377.013 76.0727 376.798 75.7437 376.504 75.501C376.21 75.2583 375.825 75.137 375.349 75.137C374.91 75.137 374.539 75.2467 374.236 75.466C373.933 75.6807 373.702 75.9933 373.543 76.404C373.389 76.8147 373.312 77.307 373.312 77.881C373.312 78.3897 373.38 78.8517 373.515 79.267C373.655 79.6823 373.874 80.0113 374.173 80.254C374.476 80.4967 374.868 80.618 375.349 80.618ZM380.43 81.5V74.262H381.683V75.312C381.8 75.1113 381.961 74.9223 382.166 74.745C382.376 74.5677 382.628 74.4253 382.922 74.318C383.221 74.2107 383.564 74.157 383.951 74.157C384.408 74.157 384.828 74.248 385.211 74.43C385.598 74.612 385.906 74.8967 386.135 75.284C386.368 75.6667 386.485 76.1613 386.485 76.768V81.5H385.19V76.894C385.19 76.3293 385.041 75.9117 384.742 75.641C384.448 75.3657 384.065 75.228 383.594 75.228C383.267 75.228 382.962 75.2817 382.677 75.389C382.392 75.4917 382.161 75.6503 381.984 75.865C381.807 76.075 381.718 76.341 381.718 76.663V81.5H380.43ZM390.583 81.64C390.111 81.64 389.696 81.5583 389.337 81.395C388.982 81.227 388.702 80.9867 388.497 80.674C388.296 80.3613 388.196 79.9833 388.196 79.54C388.196 78.7373 388.476 78.14 389.036 77.748C389.596 77.356 390.494 77.146 391.731 77.118L393.019 77.083V76.516C393.019 76.0727 392.886 75.7227 392.62 75.466C392.354 75.2047 391.943 75.074 391.388 75.074C390.972 75.0787 390.606 75.1767 390.289 75.368C389.971 75.5593 389.768 75.872 389.68 76.306H388.539C388.567 75.8347 388.697 75.438 388.931 75.116C389.169 74.7893 389.502 74.542 389.932 74.374C390.361 74.206 390.867 74.122 391.451 74.122C392.081 74.122 392.603 74.2107 393.019 74.388C393.439 74.5653 393.751 74.8267 393.957 75.172C394.167 75.5173 394.272 75.942 394.272 76.446V81.5H393.166L393.068 80.142C392.792 80.7067 392.438 81.0987 392.004 81.318C391.574 81.5327 391.101 81.64 390.583 81.64ZM390.968 80.709C391.215 80.709 391.458 80.6647 391.696 80.576C391.938 80.4873 392.158 80.3683 392.354 80.219C392.554 80.065 392.715 79.8947 392.837 79.708C392.958 79.5167 393.019 79.3207 393.019 79.12V77.881L391.948 77.902C391.392 77.9113 390.93 77.9673 390.562 78.07C390.193 78.1727 389.915 78.3337 389.729 78.553C389.542 78.7723 389.449 79.0593 389.449 79.414C389.449 79.82 389.591 80.1373 389.876 80.366C390.16 80.5947 390.524 80.709 390.968 80.709ZM398.188 81.591C397.796 81.591 397.479 81.5373 397.236 81.43C396.998 81.3227 396.814 81.178 396.683 80.996C396.557 80.814 396.471 80.6063 396.424 80.373C396.382 80.135 396.361 79.89 396.361 79.638V71.098H397.635V79.512C397.635 79.876 397.705 80.149 397.845 80.331C397.99 80.513 398.19 80.6133 398.447 80.632L398.839 80.639V81.479C398.732 81.5117 398.62 81.5373 398.503 81.556C398.386 81.5793 398.281 81.591 398.188 81.591ZM406.605 81.64C405.662 81.64 404.916 81.318 404.365 80.674C403.819 80.03 403.546 79.0897 403.546 77.853C403.546 77.1017 403.656 76.446 403.875 75.886C404.094 75.326 404.423 74.892 404.862 74.584C405.301 74.276 405.847 74.122 406.5 74.122C406.85 74.122 407.158 74.1663 407.424 74.255C407.69 74.3437 407.921 74.4557 408.117 74.591C408.313 74.7263 408.472 74.8663 408.593 75.011C408.719 75.1557 408.812 75.2887 408.873 75.41V71.098H410.182V81.5H409.188L409.048 80.016C409.001 80.156 408.927 80.3193 408.824 80.506C408.721 80.688 408.577 80.8677 408.39 81.045C408.208 81.2177 407.97 81.36 407.676 81.472C407.382 81.584 407.025 81.64 406.605 81.64ZM406.836 80.646C407.564 80.646 408.084 80.4243 408.397 79.981C408.714 79.533 408.873 78.8027 408.873 77.79C408.868 77.2253 408.798 76.7447 408.663 76.348C408.528 75.9513 408.313 75.6503 408.019 75.445C407.73 75.235 407.342 75.13 406.857 75.13C406.264 75.13 405.781 75.3423 405.408 75.767C405.035 76.1917 404.848 76.866 404.848 77.79C404.848 78.6953 405.016 79.3977 405.352 79.897C405.688 80.3963 406.183 80.646 406.836 80.646ZM414.419 81.64C413.948 81.64 413.533 81.5583 413.173 81.395C412.819 81.227 412.539 80.9867 412.333 80.674C412.133 80.3613 412.032 79.9833 412.032 79.54C412.032 78.7373 412.312 78.14 412.872 77.748C413.432 77.356 414.331 77.146 415.567 77.118L416.855 77.083V76.516C416.855 76.0727 416.722 75.7227 416.456 75.466C416.19 75.2047 415.78 75.074 415.224 75.074C414.809 75.0787 414.443 75.1767 414.125 75.368C413.808 75.5593 413.605 75.872 413.516 76.306H412.375C412.403 75.8347 412.534 75.438 412.767 75.116C413.005 74.7893 413.339 74.542 413.768 74.374C414.198 74.206 414.704 74.122 415.287 74.122C415.917 74.122 416.44 74.2107 416.855 74.388C417.275 74.5653 417.588 74.8267 417.793 75.172C418.003 75.5173 418.108 75.942 418.108 76.446V81.5H417.002L416.904 80.142C416.629 80.7067 416.274 81.0987 415.84 81.318C415.411 81.5327 414.937 81.64 414.419 81.64ZM414.804 80.709C415.052 80.709 415.294 80.6647 415.532 80.576C415.775 80.4873 415.994 80.3683 416.19 80.219C416.391 80.065 416.552 79.8947 416.673 79.708C416.795 79.5167 416.855 79.3207 416.855 79.12V77.881L415.784 77.902C415.229 77.9113 414.767 77.9673 414.398 78.07C414.03 78.1727 413.752 78.3337 413.565 78.553C413.379 78.7723 413.285 79.0593 413.285 79.414C413.285 79.82 413.428 80.1373 413.712 80.366C413.997 80.5947 414.361 80.709 414.804 80.709ZM422.55 81.535C422.051 81.535 421.663 81.4673 421.388 81.332C421.113 81.1967 420.919 80.996 420.807 80.73C420.7 80.464 420.646 80.1373 420.646 79.75V75.207H419.47V74.262H420.681L420.996 72.155H421.948V74.255H423.579V75.207H421.948V79.708C421.948 79.9647 421.974 80.1537 422.025 80.275C422.081 80.3917 422.172 80.4663 422.298 80.499C422.424 80.5317 422.601 80.548 422.83 80.548H423.621V81.416C423.532 81.4487 423.397 81.4767 423.215 81.5C423.038 81.5233 422.816 81.535 422.55 81.535ZM427.397 81.64C426.926 81.64 426.511 81.5583 426.151 81.395C425.797 81.227 425.517 80.9867 425.311 80.674C425.111 80.3613 425.01 79.9833 425.01 79.54C425.01 78.7373 425.29 78.14 425.85 77.748C426.41 77.356 427.309 77.146 428.545 77.118L429.833 77.083V76.516C429.833 76.0727 429.7 75.7227 429.434 75.466C429.168 75.2047 428.758 75.074 428.202 75.074C427.787 75.0787 427.421 75.1767 427.103 75.368C426.786 75.5593 426.583 75.872 426.494 76.306H425.353C425.381 75.8347 425.512 75.438 425.745 75.116C425.983 74.7893 426.317 74.542 426.746 74.374C427.176 74.206 427.682 74.122 428.265 74.122C428.895 74.122 429.418 74.2107 429.833 74.388C430.253 74.5653 430.566 74.8267 430.771 75.172C430.981 75.5173 431.086 75.942 431.086 76.446V81.5H429.98L429.882 80.142C429.607 80.7067 429.252 81.0987 428.818 81.318C428.389 81.5327 427.915 81.64 427.397 81.64ZM427.782 80.709C428.03 80.709 428.272 80.6647 428.51 80.576C428.753 80.4873 428.972 80.3683 429.168 80.219C429.369 80.065 429.53 79.8947 429.651 79.708C429.773 79.5167 429.833 79.3207 429.833 79.12V77.881L428.762 77.902C428.207 77.9113 427.745 77.9673 427.376 78.07C427.008 78.1727 426.73 78.3337 426.543 78.553C426.357 78.7723 426.263 79.0593 426.263 79.414C426.263 79.82 426.406 80.1373 426.69 80.366C426.975 80.5947 427.339 80.709 427.782 80.709Z" fill="#1E293B"/>
<path d="M517.5 78.5C517.5 72.1487 522.649 67 529 67H549C555.351 67 560.5 72.1487 560.5 78.5C560.5 84.8513 555.351 90 549 90H529C522.649 90 517.5 84.8513 517.5 78.5Z" fill="#3B5B63"/>
<path d="M517.5 78.5C517.5 72.1487 522.649 67 529 67H549C555.351 67 560.5 72.1487 560.5 78.5C560.5 84.8513 555.351 90 549 90H529C522.649 90 517.5 84.8513 517.5 78.5Z" stroke="#374E53"/>
<g filter="url(#filter1_dd_4715_10324)">
<path d="M539 78.5C539 72.9772 543.477 68.5 549 68.5C554.523 68.5 559 72.9772 559 78.5C559 84.0228 554.523 88.5 549 88.5C543.477 88.5 539 84.0228 539 78.5Z" fill="white" shape-rendering="crispEdges"/>
<path fill-rule="evenodd" clip-rule="evenodd" d="M552.997 75.2178C553.153 75.3542 553.169 75.5911 553.032 75.7469L547.782 81.7469C547.714 81.8251 547.616 81.8713 547.512 81.8748C547.409 81.8783 547.308 81.8386 547.235 81.7652L544.985 79.5152C544.838 79.3687 544.838 79.1313 544.985 78.9848C545.131 78.8384 545.369 78.8384 545.515 78.9848L547.482 80.9514L552.468 75.2531C552.604 75.0972 552.841 75.0814 552.997 75.2178Z" fill="#374E53"/>
</g>
<path d="M206.337 129.5V119.378H212.721L212.714 120.519H207.639V123.823H212.21V124.957H207.632V128.331L212.854 128.345V129.5H206.337ZM214.645 129.5V122.262H215.898V123.312C216.015 123.111 216.176 122.922 216.381 122.745C216.591 122.568 216.843 122.425 217.137 122.318C217.436 122.211 217.779 122.157 218.166 122.157C218.623 122.157 219.043 122.248 219.426 122.43C219.813 122.612 220.121 122.897 220.35 123.284C220.583 123.667 220.7 124.161 220.7 124.768V129.5H219.405V124.894C219.405 124.329 219.256 123.912 218.957 123.641C218.663 123.366 218.28 123.228 217.809 123.228C217.482 123.228 217.177 123.282 216.892 123.389C216.607 123.492 216.376 123.65 216.199 123.865C216.022 124.075 215.933 124.341 215.933 124.663V129.5H214.645ZM224.798 129.64C224.326 129.64 223.911 129.558 223.552 129.395C223.197 129.227 222.917 128.987 222.712 128.674C222.511 128.361 222.411 127.983 222.411 127.54C222.411 126.737 222.691 126.14 223.251 125.748C223.811 125.356 224.709 125.146 225.946 125.118L227.234 125.083V124.516C227.234 124.073 227.101 123.723 226.835 123.466C226.569 123.205 226.158 123.074 225.603 123.074C225.187 123.079 224.821 123.177 224.504 123.368C224.186 123.559 223.983 123.872 223.895 124.306H222.754C222.782 123.835 222.912 123.438 223.146 123.116C223.384 122.789 223.717 122.542 224.147 122.374C224.576 122.206 225.082 122.122 225.666 122.122C226.296 122.122 226.818 122.211 227.234 122.388C227.654 122.565 227.966 122.827 228.172 123.172C228.382 123.517 228.487 123.942 228.487 124.446V129.5H227.381L227.283 128.142C227.007 128.707 226.653 129.099 226.219 129.318C225.789 129.533 225.316 129.64 224.798 129.64ZM225.183 128.709C225.43 128.709 225.673 128.665 225.911 128.576C226.153 128.487 226.373 128.368 226.569 128.219C226.769 128.065 226.93 127.895 227.052 127.708C227.173 127.517 227.234 127.321 227.234 127.12V125.881L226.163 125.902C225.607 125.911 225.145 125.967 224.777 126.07C224.408 126.173 224.13 126.334 223.944 126.553C223.757 126.772 223.664 127.059 223.664 127.414C223.664 127.82 223.806 128.137 224.091 128.366C224.375 128.595 224.739 128.709 225.183 128.709ZM234.153 129.64C233.728 129.64 233.369 129.584 233.075 129.472C232.786 129.36 232.548 129.218 232.361 129.045C232.174 128.868 232.03 128.688 231.927 128.506C231.824 128.319 231.75 128.156 231.703 128.016L231.563 129.5H230.576V119.098H231.878V123.41C231.939 123.289 232.03 123.156 232.151 123.011C232.277 122.866 232.438 122.726 232.634 122.591C232.83 122.456 233.061 122.344 233.327 122.255C233.598 122.166 233.906 122.122 234.251 122.122C235.156 122.122 235.875 122.437 236.407 123.067C236.944 123.697 237.212 124.626 237.212 125.853C237.212 126.614 237.098 127.279 236.869 127.848C236.64 128.413 236.3 128.854 235.847 129.171C235.394 129.484 234.83 129.64 234.153 129.64ZM233.922 128.646C234.51 128.646 234.988 128.42 235.357 127.967C235.726 127.51 235.91 126.784 235.91 125.79C235.91 124.945 235.737 124.292 235.392 123.83C235.051 123.363 234.552 123.13 233.894 123.13C233.413 123.13 233.026 123.235 232.732 123.445C232.443 123.65 232.228 123.951 232.088 124.348C231.953 124.745 231.883 125.225 231.878 125.79C231.878 126.803 232.034 127.533 232.347 127.981C232.664 128.424 233.189 128.646 233.922 128.646ZM240.826 129.591C240.434 129.591 240.117 129.537 239.874 129.43C239.636 129.323 239.452 129.178 239.321 128.996C239.195 128.814 239.109 128.606 239.062 128.373C239.02 128.135 238.999 127.89 238.999 127.638V119.098H240.273V127.512C240.273 127.876 240.343 128.149 240.483 128.331C240.628 128.513 240.829 128.613 241.085 128.632L241.477 128.639V129.479C241.37 129.512 241.258 129.537 241.141 129.556C241.025 129.579 240.92 129.591 240.826 129.591ZM246.025 129.64C245.353 129.64 244.76 129.493 244.247 129.199C243.734 128.905 243.332 128.483 243.043 127.932C242.754 127.381 242.609 126.721 242.609 125.951C242.609 125.19 242.74 124.523 243.001 123.949C243.262 123.375 243.64 122.927 244.135 122.605C244.634 122.283 245.234 122.122 245.934 122.122C246.615 122.122 247.192 122.269 247.663 122.563C248.134 122.857 248.491 123.272 248.734 123.809C248.981 124.341 249.105 124.973 249.105 125.706V126.182H243.918C243.918 126.639 243.993 127.055 244.142 127.428C244.296 127.797 244.527 128.091 244.835 128.31C245.143 128.529 245.533 128.639 246.004 128.639C246.466 128.639 246.863 128.532 247.194 128.317C247.53 128.102 247.745 127.792 247.838 127.386H249.056C248.972 127.876 248.776 128.289 248.468 128.625C248.165 128.961 247.798 129.215 247.369 129.388C246.944 129.556 246.496 129.64 246.025 129.64ZM243.925 125.307H247.859C247.859 124.892 247.789 124.518 247.649 124.187C247.509 123.851 247.294 123.587 247.005 123.396C246.72 123.2 246.361 123.102 245.927 123.102C245.474 123.102 245.099 123.212 244.8 123.431C244.501 123.646 244.28 123.923 244.135 124.264C243.99 124.6 243.92 124.948 243.925 125.307ZM253.605 129.64C252.662 129.64 251.915 129.318 251.365 128.674C250.819 128.03 250.546 127.09 250.546 125.853C250.546 125.102 250.655 124.446 250.875 123.886C251.094 123.326 251.423 122.892 251.862 122.584C252.3 122.276 252.846 122.122 253.5 122.122C253.85 122.122 254.158 122.166 254.424 122.255C254.69 122.344 254.921 122.456 255.117 122.591C255.313 122.726 255.471 122.866 255.593 123.011C255.719 123.156 255.812 123.289 255.873 123.41V119.098H257.182V129.5H256.188L256.048 128.016C256.001 128.156 255.926 128.319 255.824 128.506C255.721 128.688 255.576 128.868 255.39 129.045C255.208 129.218 254.97 129.36 254.676 129.472C254.382 129.584 254.025 129.64 253.605 129.64ZM253.836 128.646C254.564 128.646 255.084 128.424 255.397 127.981C255.714 127.533 255.873 126.803 255.873 125.79C255.868 125.225 255.798 124.745 255.663 124.348C255.527 123.951 255.313 123.65 255.019 123.445C254.729 123.235 254.342 123.13 253.857 123.13C253.264 123.13 252.781 123.342 252.408 123.767C252.034 124.192 251.848 124.866 251.848 125.79C251.848 126.695 252.016 127.398 252.352 127.897C252.688 128.396 253.182 128.646 253.836 128.646ZM265.584 129.64C264.916 129.64 264.333 129.498 263.834 129.213C263.339 128.924 262.954 128.501 262.679 127.946C262.403 127.391 262.266 126.712 262.266 125.909C262.266 125.153 262.394 124.49 262.651 123.921C262.907 123.352 263.283 122.911 263.778 122.598C264.272 122.281 264.877 122.122 265.591 122.122C266.258 122.122 266.837 122.269 267.327 122.563C267.817 122.852 268.197 123.279 268.468 123.844C268.743 124.409 268.881 125.097 268.881 125.909C268.881 126.646 268.755 127.295 268.503 127.855C268.251 128.415 267.88 128.854 267.39 129.171C266.904 129.484 266.302 129.64 265.584 129.64ZM265.591 128.618C266.02 128.618 266.384 128.508 266.683 128.289C266.981 128.07 267.208 127.755 267.362 127.344C267.52 126.933 267.6 126.446 267.6 125.881C267.6 125.363 267.53 124.899 267.39 124.488C267.254 124.073 267.04 123.744 266.746 123.501C266.452 123.258 266.067 123.137 265.591 123.137C265.152 123.137 264.781 123.247 264.478 123.466C264.174 123.681 263.943 123.993 263.785 124.404C263.631 124.815 263.554 125.307 263.554 125.881C263.554 126.39 263.621 126.852 263.757 127.267C263.897 127.682 264.116 128.011 264.415 128.254C264.718 128.497 265.11 128.618 265.591 128.618ZM270.672 129.5V122.262H271.925V123.312C272.041 123.111 272.202 122.922 272.408 122.745C272.618 122.568 272.87 122.425 273.164 122.318C273.462 122.211 273.805 122.157 274.193 122.157C274.65 122.157 275.07 122.248 275.453 122.43C275.84 122.612 276.148 122.897 276.377 123.284C276.61 123.667 276.727 124.161 276.727 124.768V129.5H275.432V124.894C275.432 124.329 275.282 123.912 274.984 123.641C274.69 123.366 274.307 123.228 273.836 123.228C273.509 123.228 273.203 123.282 272.919 123.389C272.634 123.492 272.403 123.65 272.226 123.865C272.048 124.075 271.96 124.341 271.96 124.663V129.5H270.672ZM284.949 129.535C284.45 129.535 284.062 129.467 283.787 129.332C283.512 129.197 283.318 128.996 283.206 128.73C283.099 128.464 283.045 128.137 283.045 127.75V123.207H281.869V122.262H283.08L283.395 120.155H284.347V122.255H285.978V123.207H284.347V127.708C284.347 127.965 284.373 128.154 284.424 128.275C284.48 128.392 284.571 128.466 284.697 128.499C284.823 128.532 285 128.548 285.229 128.548H286.02V129.416C285.931 129.449 285.796 129.477 285.614 129.5C285.437 129.523 285.215 129.535 284.949 129.535ZM287.807 129.5V119.098H289.067V123.326C289.189 123.125 289.352 122.939 289.557 122.766C289.763 122.589 290.012 122.446 290.306 122.339C290.6 122.227 290.941 122.171 291.328 122.171C291.8 122.171 292.227 122.26 292.609 122.437C292.992 122.61 293.295 122.857 293.519 123.179C293.743 123.501 293.855 123.884 293.855 124.327V129.5H292.56V124.586C292.56 124.152 292.411 123.818 292.112 123.585C291.818 123.347 291.433 123.228 290.957 123.228C290.635 123.228 290.332 123.282 290.047 123.389C289.763 123.492 289.532 123.65 289.354 123.865C289.182 124.075 289.095 124.343 289.095 124.67V129.5H287.807ZM295.979 129.5V122.262H297.232V129.5H295.979ZM295.944 120.729V119.385H297.267V120.729H295.944ZM302.077 129.64C301.573 129.64 301.104 129.563 300.67 129.409C300.241 129.25 299.884 129.005 299.599 128.674C299.314 128.338 299.137 127.911 299.067 127.393H300.243C300.304 127.678 300.42 127.916 300.593 128.107C300.766 128.294 300.978 128.436 301.23 128.534C301.487 128.627 301.767 128.674 302.07 128.674C302.56 128.674 302.954 128.583 303.253 128.401C303.552 128.219 303.701 127.939 303.701 127.561C303.701 127.295 303.622 127.083 303.463 126.924C303.309 126.761 303.066 126.642 302.735 126.567L301.237 126.196C300.654 126.056 300.187 125.837 299.837 125.538C299.492 125.239 299.317 124.822 299.312 124.285C299.312 123.86 299.415 123.487 299.62 123.165C299.825 122.843 300.131 122.589 300.537 122.402C300.948 122.215 301.459 122.122 302.07 122.122C302.859 122.122 303.493 122.299 303.974 122.654C304.455 123.004 304.707 123.52 304.73 124.201H303.582C303.535 123.856 303.381 123.583 303.12 123.382C302.859 123.177 302.504 123.074 302.056 123.074C301.599 123.074 301.223 123.167 300.929 123.354C300.64 123.536 300.495 123.821 300.495 124.208C300.495 124.465 300.598 124.668 300.803 124.817C301.013 124.962 301.316 125.083 301.713 125.181L303.169 125.545C303.5 125.634 303.776 125.75 303.995 125.895C304.214 126.04 304.387 126.201 304.513 126.378C304.639 126.555 304.728 126.742 304.779 126.938C304.835 127.129 304.863 127.314 304.863 127.491C304.863 127.934 304.753 128.317 304.534 128.639C304.315 128.956 303.997 129.204 303.582 129.381C303.167 129.554 302.665 129.64 302.077 129.64ZM311.495 129.5L309.255 122.262H310.459L312.111 127.827H312.223L313.854 122.262H314.834L316.528 127.813H316.647L318.229 122.262H319.447L317.249 129.5H315.975L314.33 124.159L312.755 129.5H311.495ZM323.879 129.64C323.207 129.64 322.614 129.493 322.101 129.199C321.587 128.905 321.186 128.483 320.897 127.932C320.607 127.381 320.463 126.721 320.463 125.951C320.463 125.19 320.593 124.523 320.855 123.949C321.116 123.375 321.494 122.927 321.989 122.605C322.488 122.283 323.088 122.122 323.788 122.122C324.469 122.122 325.045 122.269 325.517 122.563C325.988 122.857 326.345 123.272 326.588 123.809C326.835 124.341 326.959 124.973 326.959 125.706V126.182H321.772C321.772 126.639 321.846 127.055 321.996 127.428C322.15 127.797 322.381 128.091 322.689 128.31C322.997 128.529 323.386 128.639 323.858 128.639C324.32 128.639 324.716 128.532 325.048 128.317C325.384 128.102 325.598 127.792 325.692 127.386H326.91C326.826 127.876 326.63 128.289 326.322 128.625C326.018 128.961 325.652 129.215 325.223 129.388C324.798 129.556 324.35 129.64 323.879 129.64ZM321.779 125.307H325.713C325.713 124.892 325.643 124.518 325.503 124.187C325.363 123.851 325.148 123.587 324.859 123.396C324.574 123.2 324.215 123.102 323.781 123.102C323.328 123.102 322.952 123.212 322.654 123.431C322.355 123.646 322.133 123.923 321.989 124.264C321.844 124.6 321.774 124.948 321.779 125.307ZM332.396 129.64C331.972 129.64 331.612 129.584 331.318 129.472C331.029 129.36 330.791 129.218 330.604 129.045C330.418 128.868 330.273 128.688 330.17 128.506C330.068 128.319 329.993 128.156 329.946 128.016L329.806 129.5H328.819V119.098H330.121V123.41C330.182 123.289 330.273 123.156 330.394 123.011C330.52 122.866 330.681 122.726 330.877 122.591C331.073 122.456 331.304 122.344 331.57 122.255C331.841 122.166 332.149 122.122 332.494 122.122C333.4 122.122 334.118 122.437 334.65 123.067C335.187 123.697 335.455 124.626 335.455 125.853C335.455 126.614 335.341 127.279 335.112 127.848C334.884 128.413 334.543 128.854 334.09 129.171C333.638 129.484 333.073 129.64 332.396 129.64ZM332.165 128.646C332.753 128.646 333.232 128.42 333.6 127.967C333.969 127.51 334.153 126.784 334.153 125.79C334.153 124.945 333.981 124.292 333.635 123.83C333.295 123.363 332.795 123.13 332.137 123.13C331.657 123.13 331.269 123.235 330.975 123.445C330.686 123.65 330.471 123.951 330.331 124.348C330.196 124.745 330.126 125.225 330.121 125.79C330.121 126.803 330.278 127.533 330.59 127.981C330.908 128.424 331.433 128.646 332.165 128.646ZM339.806 129.64C339.302 129.64 338.833 129.563 338.399 129.409C337.969 129.25 337.612 129.005 337.328 128.674C337.043 128.338 336.866 127.911 336.796 127.393H337.972C338.032 127.678 338.149 127.916 338.322 128.107C338.494 128.294 338.707 128.436 338.959 128.534C339.215 128.627 339.495 128.674 339.799 128.674C340.289 128.674 340.683 128.583 340.982 128.401C341.28 128.219 341.43 127.939 341.43 127.561C341.43 127.295 341.35 127.083 341.192 126.924C341.038 126.761 340.795 126.642 340.464 126.567L338.966 126.196C338.382 126.056 337.916 125.837 337.566 125.538C337.22 125.239 337.045 124.822 337.041 124.285C337.041 123.86 337.143 123.487 337.349 123.165C337.554 122.843 337.86 122.589 338.266 122.402C338.676 122.215 339.187 122.122 339.799 122.122C340.587 122.122 341.222 122.299 341.703 122.654C342.183 123.004 342.435 123.52 342.459 124.201H341.311C341.264 123.856 341.11 123.583 340.849 123.382C340.587 123.177 340.233 123.074 339.785 123.074C339.327 123.074 338.952 123.167 338.658 123.354C338.368 123.536 338.224 123.821 338.224 124.208C338.224 124.465 338.326 124.668 338.532 124.817C338.742 124.962 339.045 125.083 339.442 125.181L340.898 125.545C341.229 125.634 341.504 125.75 341.724 125.895C341.943 126.04 342.116 126.201 342.242 126.378C342.368 126.555 342.456 126.742 342.508 126.938C342.564 127.129 342.592 127.314 342.592 127.491C342.592 127.934 342.482 128.317 342.263 128.639C342.043 128.956 341.726 129.204 341.311 129.381C340.895 129.554 340.394 129.64 339.806 129.64ZM344.389 129.5V122.262H345.642V129.5H344.389ZM344.354 120.729V119.385H345.677V120.729H344.354ZM350.536 129.535C350.036 129.535 349.649 129.467 349.374 129.332C349.098 129.197 348.905 128.996 348.793 128.73C348.685 128.464 348.632 128.137 348.632 127.75V123.207H347.456V122.262H348.667L348.982 120.155H349.934V122.255H351.565V123.207H349.934V127.708C349.934 127.965 349.959 128.154 350.011 128.275C350.067 128.392 350.158 128.466 350.284 128.499C350.41 128.532 350.587 128.548 350.816 128.548H351.607V129.416C351.518 129.449 351.383 129.477 351.201 129.5C351.023 129.523 350.802 129.535 350.536 129.535ZM356.262 129.64C355.59 129.64 354.997 129.493 354.484 129.199C353.97 128.905 353.569 128.483 353.28 127.932C352.99 127.381 352.846 126.721 352.846 125.951C352.846 125.19 352.976 124.523 353.238 123.949C353.499 123.375 353.877 122.927 354.372 122.605C354.871 122.283 355.471 122.122 356.171 122.122C356.852 122.122 357.428 122.269 357.9 122.563C358.371 122.857 358.728 123.272 358.971 123.809C359.218 124.341 359.342 124.973 359.342 125.706V126.182H354.155C354.155 126.639 354.229 127.055 354.379 127.428C354.533 127.797 354.764 128.091 355.072 128.31C355.38 128.529 355.769 128.639 356.241 128.639C356.703 128.639 357.099 128.532 357.431 128.317C357.767 128.102 357.981 127.792 358.075 127.386H359.293C359.209 127.876 359.013 128.289 358.705 128.625C358.401 128.961 358.035 129.215 357.606 129.388C357.181 129.556 356.733 129.64 356.262 129.64ZM354.162 125.307H358.096C358.096 124.892 358.026 124.518 357.886 124.187C357.746 123.851 357.531 123.587 357.242 123.396C356.957 123.2 356.598 123.102 356.164 123.102C355.711 123.102 355.335 123.212 355.037 123.431C354.738 123.646 354.516 123.923 354.372 124.264C354.227 124.6 354.157 124.948 354.162 125.307Z" fill="#1E293B"/>
<path d="M517.5 126.5C517.5 120.149 522.649 115 529 115H549C555.351 115 560.5 120.149 560.5 126.5C560.5 132.851 555.351 138 549 138H529C522.649 138 517.5 132.851 517.5 126.5Z" fill="#3B5B63"/>
<path d="M517.5 126.5C517.5 120.149 522.649 115 529 115H549C555.351 115 560.5 120.149 560.5 126.5C560.5 132.851 555.351 138 549 138H529C522.649 138 517.5 132.851 517.5 126.5Z" stroke="#374E53"/>
<g filter="url(#filter2_dd_4715_10324)">
<path d="M539 126.5C539 120.977 543.477 116.5 549 116.5C554.523 116.5 559 120.977 559 126.5C559 132.023 554.523 136.5 549 136.5C543.477 136.5 539 132.023 539 126.5Z" fill="white" shape-rendering="crispEdges"/>
<path fill-rule="evenodd" clip-rule="evenodd" d="M552.997 123.218C553.153 123.354 553.169 123.591 553.032 123.747L547.782 129.747C547.714 129.825 547.616 129.871 547.512 129.875C547.409 129.878 547.308 129.839 547.235 129.765L544.985 127.515C544.838 127.369 544.838 127.131 544.985 126.985C545.131 126.838 545.369 126.838 545.515 126.985L547.482 128.951L552.468 123.253C552.604 123.097 552.841 123.081 552.997 123.218Z" fill="#374E53"/>
</g>
</g>
<path d="M201 54C194.096 54 188.5 59.5964 188.5 66.5V138.5C188.5 145.404 194.096 151 201 151H565C571.904 151 577.5 145.404 577.5 138.5V66.5C577.5 59.5964 571.904 54 565 54H201Z" stroke="url(#paint5_linear_4715_10324)"/>
<rect width="100" height="1" transform="matrix(-1 0 0 1 677 79.5)" fill="url(#paint6_linear_4715_10324)"/>
<rect width="120" height="1" transform="matrix(-1 0 0 1 697 94.5)" fill="url(#paint7_linear_4715_10324)"/>
<rect width="143" height="1" transform="matrix(-1 0 0 1 720 109.5)" fill="url(#paint8_linear_4715_10324)"/>
<rect width="80" height="1" transform="matrix(-1 0 0 1 657 124.5)" fill="url(#paint9_linear_4715_10324)"/>
<defs>
<filter id="filter0_f_4715_10324" x="155" y="19.5" width="457" height="167" filterUnits="userSpaceOnUse" color-interpolation-filters="sRGB">
<feFlood flood-opacity="0" result="BackgroundImageFix"/>
<feBlend mode="normal" in="SourceGraphic" in2="BackgroundImageFix" result="shape"/>
<feGaussianBlur stdDeviation="15" result="effect1_foregroundBlur_4715_10324"/>
</filter>
<filter id="filter1_dd_4715_10324" x="537" y="67.5" width="24" height="24" filterUnits="userSpaceOnUse" color-interpolation-filters="sRGB">
<feFlood flood-opacity="0" result="BackgroundImageFix"/>
<feColorMatrix in="SourceAlpha" type="matrix" values="0 0 0 0 0 0 0 0 0 0 0 0 0 0 0 0 0 0 127 0" result="hardAlpha"/>
<feOffset dy="1"/>
<feGaussianBlur stdDeviation="0.5"/>
<feComposite in2="hardAlpha" operator="out"/>
<feColorMatrix type="matrix" values="0 0 0 0 0 0 0 0 0 0 0 0 0 0 0 0 0 0 0.06 0"/>
<feBlend mode="normal" in2="BackgroundImageFix" result="effect1_dropShadow_4715_10324"/>
<feColorMatrix in="SourceAlpha" type="matrix" values="0 0 0 0 0 0 0 0 0 0 0 0 0 0 0 0 0 0 127 0" result="hardAlpha"/>
<feOffset dy="1"/>
<feGaussianBlur stdDeviation="1"/>
<feComposite in2="hardAlpha" operator="out"/>
<feColorMatrix type="matrix" values="0 0 0 0 0 0 0 0 0 0 0 0 0 0 0 0 0 0 0.1 0"/>
<feBlend mode="normal" in2="effect1_dropShadow_4715_10324" result="effect2_dropShadow_4715_10324"/>
<feBlend mode="normal" in="SourceGraphic" in2="effect2_dropShadow_4715_10324" result="shape"/>
</filter>
<filter id="filter2_dd_4715_10324" x="537" y="115.5" width="24" height="24" filterUnits="userSpaceOnUse" color-interpolation-filters="sRGB">
<feFlood flood-opacity="0" result="BackgroundImageFix"/>
<feColorMatrix in="SourceAlpha" type="matrix" values="0 0 0 0 0 0 0 0 0 0 0 0 0 0 0 0 0 0 127 0" result="hardAlpha"/>
<feOffset dy="1"/>
<feGaussianBlur stdDeviation="0.5"/>
<feComposite in2="hardAlpha" operator="out"/>
<feColorMatrix type="matrix" values="0 0 0 0 0 0 0 0 0 0 0 0 0 0 0 0 0 0 0.06 0"/>
<feBlend mode="normal" in2="BackgroundImageFix" result="effect1_dropShadow_4715_10324"/>
<feColorMatrix in="SourceAlpha" type="matrix" values="0 0 0 0 0 0 0 0 0 0 0 0 0 0 0 0 0 0 127 0" result="hardAlpha"/>
<feOffset dy="1"/>
<feGaussianBlur stdDeviation="1"/>
<feComposite in2="hardAlpha" operator="out"/>
<feColorMatrix type="matrix" values="0 0 0 0 0 0 0 0 0 0 0 0 0 0 0 0 0 0 0.1 0"/>
<feBlend mode="normal" in2="effect1_dropShadow_4715_10324" result="effect2_dropShadow_4715_10324"/>
<feBlend mode="normal" in="SourceGraphic" in2="effect2_dropShadow_4715_10324" result="shape"/>
</filter>
<linearGradient id="paint0_linear_4715_10324" x1="190.39" y1="54.5" x2="562.351" y2="190.498" gradientUnits="userSpaceOnUse">
<stop stop-color="#4F868E"/>
<stop offset="0.5" stop-color="#BC52AD"/>
<stop offset="1" stop-color="#F4B62B"/>
</linearGradient>
<linearGradient id="paint1_linear_4715_10324" x1="89" y1="80" x2="189" y2="80" gradientUnits="userSpaceOnUse">
<stop stop-color="white" stop-opacity="0"/>
<stop offset="1" stop-color="#020617" stop-opacity="0.15"/>
</linearGradient>
<linearGradient id="paint2_linear_4715_10324" x1="69" y1="95" x2="189" y2="95" gradientUnits="userSpaceOnUse">
<stop stop-color="white" stop-opacity="0"/>
<stop offset="1" stop-color="#020617" stop-opacity="0.25"/>
</linearGradient>
<linearGradient id="paint3_linear_4715_10324" x1="46" y1="110" x2="189" y2="110" gradientUnits="userSpaceOnUse">
<stop stop-color="white" stop-opacity="0"/>
<stop offset="1" stop-color="#020617" stop-opacity="0.35"/>
</linearGradient>
<linearGradient id="paint4_linear_4715_10324" x1="109" y1="125" x2="189" y2="125" gradientUnits="userSpaceOnUse">
<stop stop-color="white" stop-opacity="0"/>
<stop offset="1" stop-color="#020617" stop-opacity="0.15"/>
</linearGradient>
<linearGradient id="paint5_linear_4715_10324" x1="189.391" y1="54.5" x2="561.164" y2="192.2" gradientUnits="userSpaceOnUse">
<stop stop-color="#4F868E"/>
<stop offset="0.5" stop-color="#BC52AD"/>
<stop offset="1" stop-color="#F4B62B"/>
</linearGradient>
<linearGradient id="paint6_linear_4715_10324" x1="0" y1="0.5" x2="100" y2="0.5" gradientUnits="userSpaceOnUse">
<stop stop-color="white" stop-opacity="0"/>
<stop offset="1" stop-color="#020617" stop-opacity="0.15"/>
</linearGradient>
<linearGradient id="paint7_linear_4715_10324" x1="0" y1="0.5" x2="120" y2="0.5" gradientUnits="userSpaceOnUse">
<stop stop-color="white" stop-opacity="0"/>
<stop offset="1" stop-color="#020617" stop-opacity="0.25"/>
</linearGradient>
<linearGradient id="paint8_linear_4715_10324" x1="0" y1="0.5" x2="143" y2="0.5" gradientUnits="userSpaceOnUse">
<stop stop-color="white" stop-opacity="0"/>
<stop offset="1" stop-color="#020617" stop-opacity="0.35"/>
</linearGradient>
<linearGradient id="paint9_linear_4715_10324" x1="0" y1="0.5" x2="80" y2="0.5" gradientUnits="userSpaceOnUse">
<stop stop-color="white" stop-opacity="0"/>
<stop offset="1" stop-color="#020617" stop-opacity="0.15"/>
</linearGradient>
<clipPath id="clip0_4715_10324">
<rect width="78" height="16" fill="white" transform="translate(214 8.5)"/>
</clipPath>
<clipPath id="clip1_4715_10324">
<path d="M189 66.5C189 59.8726 194.373 54.5 201 54.5H565C571.627 54.5 577 59.8726 577 66.5V138.5C577 145.127 571.627 150.5 565 150.5H201C194.373 150.5 189 145.127 189 138.5V66.5Z" fill="white"/>
</clipPath>
</defs>
</svg>
