<svg width="405" height="300" viewBox="0 0 405 300" fill="none" xmlns="http://www.w3.org/2000/svg">
<g clip-path="url(#clip0_4735_1075)">
<rect x="14" y="113" width="141" height="1" fill="url(#paint0_linear_4735_1075)"/>
<rect x="-15" y="126" width="170" height="1" fill="url(#paint1_linear_4735_1075)"/>
<rect y="139" width="155" height="1" fill="url(#paint2_linear_4735_1075)"/>
<rect x="5" y="152" width="150" height="1" fill="url(#paint3_linear_4735_1075)"/>
<rect x="40" y="165" width="115" height="1" fill="url(#paint4_linear_4735_1075)"/>
<rect width="141" height="1" transform="matrix(-1 0 0 1 391 113)" fill="url(#paint5_linear_4735_1075)"/>
<rect width="170" height="1" transform="matrix(-1 0 0 1 420 126)" fill="url(#paint6_linear_4735_1075)"/>
<rect width="155" height="1" transform="matrix(-1 0 0 1 405 139)" fill="url(#paint7_linear_4735_1075)"/>
<rect width="150" height="1" transform="matrix(-1 0 0 1 400 152)" fill="url(#paint8_linear_4735_1075)"/>
<rect width="115" height="1" transform="matrix(-1 0 0 1 365 165)" fill="url(#paint9_linear_4735_1075)"/>
<g clip-path="url(#clip1_4735_1075)">
<g opacity="0.35" filter="url(#filter0_f_4735_1075)">
<mask id="path-11-outside-1_4735_1075" maskUnits="userSpaceOnUse" x="124.729" y="58" width="162" height="180" fill="black">
<rect fill="white" x="124.729" y="58" width="162" height="180"/>
<path d="M181.18 87.8265C172.298 90.2725 163.477 92.934 154.725 95.8085C153.925 96.0665 153.214 96.5443 152.673 97.1875C152.133 97.8306 151.784 98.613 151.667 99.4452C146.501 138.209 158.436 166.491 172.675 185.122C178.701 193.091 185.89 200.11 194.001 205.944C197.228 208.219 200.081 209.861 202.328 210.914C203.447 211.443 204.358 211.809 205.061 212.015C205.37 212.109 205.685 212.186 206.002 212.248C206.317 212.186 206.628 212.108 206.935 212.015C207.644 211.803 208.557 211.436 209.676 210.914C211.914 209.861 214.777 208.21 218.003 205.944C226.114 200.11 233.303 193.091 239.329 185.122C253.568 166.5 265.504 138.209 260.338 99.4452C260.221 98.613 259.872 97.8306 259.331 97.1875C258.79 96.5443 258.079 96.0665 257.28 95.8085C251.209 93.8223 240.961 90.5866 230.825 87.8358C220.474 85.029 210.954 82.9496 206.002 82.9496C201.06 82.9496 191.53 85.0197 181.18 87.8265ZM178.699 78.2219C188.817 75.4711 199.568 73 206.002 73C212.436 73 223.188 75.4711 233.305 78.2219C243.656 81.0194 254.09 84.3297 260.226 86.3345C262.792 87.1817 265.066 88.7353 266.788 90.817C268.51 92.8986 269.61 95.4238 269.961 98.1024C275.519 139.85 262.623 170.789 246.976 191.257C240.338 200.011 232.427 207.721 223.505 214.131C220.423 216.355 217.154 218.305 213.733 219.959C211.122 221.19 208.315 222.197 206.002 222.197C203.69 222.197 200.892 221.19 198.272 219.959C194.851 218.305 191.581 216.355 188.5 214.131C179.578 207.721 171.667 200.011 165.029 191.257C149.382 170.789 136.486 139.85 142.043 98.1024C142.395 95.4238 143.495 92.8986 145.217 90.817C146.939 88.7353 149.213 87.1817 151.778 86.3345C160.686 83.4159 169.662 80.7109 178.699 78.2219Z"/>
</mask>
<path d="M181.18 87.8265C172.298 90.2725 163.477 92.934 154.725 95.8085C153.925 96.0665 153.214 96.5443 152.673 97.1875C152.133 97.8306 151.784 98.613 151.667 99.4452C146.501 138.209 158.436 166.491 172.675 185.122C178.701 193.091 185.89 200.11 194.001 205.944C197.228 208.219 200.081 209.861 202.328 210.914C203.447 211.443 204.358 211.809 205.061 212.015C205.37 212.109 205.685 212.186 206.002 212.248C206.317 212.186 206.628 212.108 206.935 212.015C207.644 211.803 208.557 211.436 209.676 210.914C211.914 209.861 214.777 208.21 218.003 205.944C226.114 200.11 233.303 193.091 239.329 185.122C253.568 166.5 265.504 138.209 260.338 99.4452C260.221 98.613 259.872 97.8306 259.331 97.1875C258.79 96.5443 258.079 96.0665 257.28 95.8085C251.209 93.8223 240.961 90.5866 230.825 87.8358C220.474 85.029 210.954 82.9496 206.002 82.9496C201.06 82.9496 191.53 85.0197 181.18 87.8265ZM178.699 78.2219C188.817 75.4711 199.568 73 206.002 73C212.436 73 223.188 75.4711 233.305 78.2219C243.656 81.0194 254.09 84.3297 260.226 86.3345C262.792 87.1817 265.066 88.7353 266.788 90.817C268.51 92.8986 269.61 95.4238 269.961 98.1024C275.519 139.85 262.623 170.789 246.976 191.257C240.338 200.011 232.427 207.721 223.505 214.131C220.423 216.355 217.154 218.305 213.733 219.959C211.122 221.19 208.315 222.197 206.002 222.197C203.69 222.197 200.892 221.19 198.272 219.959C194.851 218.305 191.581 216.355 188.5 214.131C179.578 207.721 171.667 200.011 165.029 191.257C149.382 170.789 136.486 139.85 142.043 98.1024C142.395 95.4238 143.495 92.8986 145.217 90.817C146.939 88.7353 149.213 87.1817 151.778 86.3345C160.686 83.4159 169.662 80.7109 178.699 78.2219Z" fill="#020617"/>
<path d="M181.18 87.8265L177.254 73.3493L177.225 73.3571L177.197 73.3649L181.18 87.8265ZM154.725 95.8085L159.329 110.085L159.367 110.072L159.406 110.06L154.725 95.8085ZM151.667 99.4452L136.813 97.3567L136.805 97.4102L136.798 97.4637L151.667 99.4452ZM172.675 185.122L184.64 176.075L184.617 176.044L184.593 176.013L172.675 185.122ZM194.001 205.944L185.243 218.121L185.299 218.162L185.357 218.203L194.001 205.944ZM202.328 210.914L208.733 197.35L208.715 197.342L208.696 197.333L202.328 210.914ZM205.061 212.015L209.417 197.661L209.341 197.638L209.265 197.616L205.061 212.015ZM206.002 212.248L203.161 226.976L206.024 227.528L208.886 226.968L206.002 212.248ZM206.935 212.015L202.648 197.64L202.6 197.655L202.552 197.669L206.935 212.015ZM209.676 210.914L216.02 224.507L216.043 224.496L216.066 224.485L209.676 210.914ZM218.003 205.944L226.624 218.219L226.693 218.171L226.762 218.121L218.003 205.944ZM239.329 185.122L227.414 176.01L227.389 176.043L227.365 176.075L239.329 185.122ZM260.338 99.4452L275.207 97.4637L275.2 97.4102L275.192 97.3567L260.338 99.4452ZM257.28 95.8085L252.615 110.065L252.645 110.075L252.676 110.085L257.28 95.8085ZM230.825 87.8358L234.754 73.3594L234.751 73.3586L230.825 87.8358ZM178.699 78.2219L174.764 63.7474L174.74 63.7538L174.716 63.7604L178.699 78.2219ZM233.305 78.2219L229.37 92.6964L229.381 92.6994L229.392 92.7024L233.305 78.2219ZM260.226 86.3345L264.93 72.0911L264.908 72.0837L264.885 72.0763L260.226 86.3345ZM269.961 98.1024L255.089 100.054L255.091 100.068L255.093 100.082L269.961 98.1024ZM246.976 191.257L235.059 182.148L235.041 182.171L235.023 182.194L246.976 191.257ZM223.505 214.131L214.752 201.95L214.74 201.958L214.728 201.967L223.505 214.131ZM213.733 219.959L220.129 233.527L220.196 233.495L220.264 233.463L213.733 219.959ZM198.272 219.959L191.741 233.463L191.818 233.5L191.894 233.536L198.272 219.959ZM188.5 214.131L197.276 201.967L197.264 201.958L197.252 201.95L188.5 214.131ZM165.029 191.257L176.981 182.194L176.964 182.171L176.946 182.148L165.029 191.257ZM142.043 98.1024L156.912 100.082L156.914 100.068L156.916 100.054L142.043 98.1024ZM151.778 86.3345L147.108 72.0801L147.091 72.0856L147.075 72.0911L151.778 86.3345ZM177.197 73.3649C168.081 75.8755 159.028 78.6071 150.045 81.5575L159.406 110.06C167.927 107.261 176.515 104.67 185.163 102.288L177.197 73.3649ZM150.121 81.5325C146.641 82.6548 143.547 84.7342 141.194 87.5327L164.153 106.842C162.881 108.354 161.21 109.478 159.329 110.085L150.121 81.5325ZM141.194 87.5327C138.84 90.3312 137.322 93.7357 136.813 97.3567L166.52 101.534C166.245 103.49 165.425 105.33 164.153 106.842L141.194 87.5327ZM136.798 97.4637C131.047 140.616 144.392 172.817 160.758 194.23L184.593 176.013C172.481 160.165 161.954 135.802 166.535 101.427L136.798 97.4637ZM160.711 194.169C167.643 203.336 175.912 211.41 185.243 218.121L202.76 193.767C195.868 188.81 189.76 182.846 184.64 176.075L160.711 194.169ZM185.357 218.203C189.17 220.892 192.783 223.006 195.96 224.495L208.696 197.333C207.379 196.715 205.285 195.547 202.646 193.686L185.357 218.203ZM195.923 224.478C197.339 225.147 199.06 225.889 200.856 226.413L209.265 197.616C209.402 197.656 209.485 197.685 209.507 197.693C209.53 197.701 209.514 197.696 209.454 197.672C209.328 197.621 209.094 197.521 208.733 197.35L195.923 224.478ZM200.704 226.368C201.512 226.613 202.332 226.816 203.161 226.976L208.844 197.519C209.037 197.557 209.229 197.604 209.417 197.661L200.704 226.368ZM208.886 226.968C209.706 226.807 210.518 226.604 211.318 226.36L202.552 197.669C202.738 197.612 202.928 197.565 203.119 197.527L208.886 226.968ZM211.222 226.389C212.944 225.875 214.612 225.164 216.02 224.507L203.333 197.321C202.963 197.494 202.712 197.601 202.565 197.66C202.404 197.725 202.446 197.701 202.648 197.64L211.222 226.389ZM216.066 224.485C219.224 222.998 222.832 220.882 226.624 218.219L209.382 193.669C206.722 195.538 204.605 196.723 203.287 197.343L216.066 224.485ZM226.762 218.121C236.092 211.41 244.362 203.336 251.294 194.169L227.365 176.075C222.245 182.846 216.137 188.81 209.245 193.767L226.762 218.121ZM251.245 194.233C267.614 172.826 280.957 140.614 275.207 97.4637L245.47 101.427C250.051 135.803 239.523 160.174 227.414 176.01L251.245 194.233ZM275.192 97.3567C274.683 93.7358 273.165 90.3312 270.811 87.5327L247.852 106.842C246.58 105.33 245.759 103.49 245.484 101.534L275.192 97.3567ZM270.811 87.5327C268.457 84.7342 265.364 82.6548 261.883 81.5325L252.676 110.085C250.795 109.478 249.123 108.354 247.852 106.842L270.811 87.5327ZM261.944 81.5522C255.753 79.5265 245.236 76.2042 234.754 73.3594L226.896 102.312C236.686 104.969 246.666 108.118 252.615 110.065L261.944 81.5522ZM234.751 73.3586C224.773 70.653 213.298 67.9496 206.002 67.9496V97.9496C208.61 97.9496 216.176 99.4051 226.899 102.313L234.751 73.3586ZM206.002 67.9496C198.722 67.9496 187.248 70.6391 177.254 73.3493L185.105 102.304C195.812 99.4003 203.398 97.9496 206.002 97.9496V67.9496ZM182.635 92.6964C193.092 89.8531 201.907 88 206.002 88V58C197.23 58 184.541 61.089 174.764 63.7474L182.635 92.6964ZM206.002 88C210.098 88 218.912 89.8531 229.37 92.6964L237.241 63.7474C227.464 61.089 214.775 58 206.002 58V88ZM229.392 92.7024C239.377 95.401 249.53 98.62 255.567 100.593L264.885 72.0763C258.651 70.0393 247.935 66.6377 237.219 63.7415L229.392 92.7024ZM255.523 100.578C255.408 100.54 255.307 100.471 255.23 100.378L278.346 81.2557C274.825 76.9997 270.175 73.8232 264.93 72.0911L255.523 100.578ZM255.23 100.378C255.153 100.285 255.104 100.173 255.089 100.054L284.834 96.1512C284.115 90.6746 281.867 85.5117 278.346 81.2557L255.23 100.378ZM255.093 100.082C260.066 137.442 248.578 164.463 235.059 182.148L258.892 200.367C276.667 177.116 290.972 142.257 284.83 96.123L255.093 100.082ZM235.023 182.194C229.291 189.754 222.458 196.413 214.752 201.95L232.258 226.313C242.395 219.029 251.385 210.268 258.928 200.321L235.023 182.194ZM214.728 201.967C212.355 203.679 209.836 205.181 207.202 206.456L220.264 233.463C224.471 231.428 228.492 229.03 232.282 226.296L214.728 201.967ZM207.336 206.391C206.435 206.816 205.768 207.073 205.341 207.204C205.141 207.266 205.083 207.272 205.152 207.26C205.214 207.248 205.513 207.197 206.002 207.197V237.197C211.852 237.197 217.226 234.896 220.129 233.527L207.336 206.391ZM206.002 207.197C206.492 207.197 206.792 207.248 206.857 207.26C206.928 207.273 206.871 207.267 206.671 207.205C206.242 207.073 205.57 206.815 204.65 206.383L191.894 233.536C194.777 234.89 200.149 237.197 206.002 237.197V207.197ZM204.803 206.456C202.168 205.181 199.65 203.679 197.276 201.967L179.723 226.296C183.513 229.03 187.534 231.428 191.741 233.463L204.803 206.456ZM197.252 201.95C189.547 196.413 182.714 189.754 176.981 182.194L153.077 200.321C160.62 210.268 169.609 219.029 179.747 226.313L197.252 201.95ZM176.946 182.148C163.427 164.463 151.939 137.442 156.912 100.082L127.175 96.123C121.033 142.257 135.337 177.116 153.112 200.367L176.946 182.148ZM156.916 100.054C156.9 100.173 156.851 100.285 156.775 100.378L133.659 81.2557C130.138 85.5117 127.889 90.6746 127.171 96.1512L156.916 100.054ZM156.775 100.378C156.698 100.471 156.596 100.54 156.482 100.578L147.075 72.0911C141.83 73.8232 137.18 76.9997 133.659 81.2557L156.775 100.378ZM156.449 100.589C165.129 97.7448 173.876 95.1089 182.682 92.6834L174.716 63.7604C165.448 66.313 156.243 69.087 147.108 72.0801L156.449 100.589Z" fill="url(#paint10_linear_4735_1075)" mask="url(#path-11-outside-1_4735_1075)"/>
</g>
<path d="M149.436 3.68188C128.482 9.40369 107.671 15.6294 87.0221 22.3534C85.1351 22.9567 83.4576 24.0746 82.1815 25.579C80.9053 27.0834 80.0821 28.9136 79.8061 30.8602C67.6181 121.535 95.7781 187.692 129.372 231.273C143.589 249.915 160.55 266.334 179.686 279.981C187.298 285.303 194.03 289.142 199.332 291.607C201.972 292.843 204.121 293.701 205.778 294.181C206.509 294.401 207.25 294.583 208 294.726C208.742 294.582 209.477 294.4 210.2 294.181C211.872 293.686 214.028 292.828 216.668 291.607C221.948 289.142 228.702 285.281 236.314 279.981C255.45 266.334 272.411 249.915 286.628 231.273C320.222 187.714 348.382 121.535 336.194 30.8602C335.918 28.9136 335.095 27.0834 333.819 25.579C332.542 24.0746 330.865 22.9567 328.978 22.3534C314.656 17.7073 290.478 10.1384 266.564 3.70369C242.144 -2.86188 219.682 -7.72606 208 -7.72606C196.34 -7.72606 173.856 -2.88369 149.436 3.68188ZM143.584 -18.785C167.454 -25.2197 192.82 -31 208 -31C223.18 -31 248.546 -25.2197 272.416 -18.785C296.836 -12.2412 321.454 -4.49781 335.93 0.191875C341.982 2.17357 347.348 5.80783 351.411 10.6772C355.474 15.5465 358.069 21.4534 358.898 27.7193C372.01 125.374 341.584 197.748 304.668 245.626C289.007 266.102 270.342 284.138 249.294 299.132C242.024 304.333 234.309 308.895 226.238 312.765C220.078 315.644 213.456 318 208 318C202.544 318 195.944 315.644 189.762 312.765C181.691 308.895 173.976 304.333 166.706 299.132C145.658 284.138 126.993 266.102 111.332 245.626C74.4161 197.748 43.9901 125.374 57.1021 27.7193C57.9312 21.4534 60.5263 15.5465 64.5891 10.6772C68.6519 5.80783 74.0177 2.17357 80.0701 0.191875C101.086 -6.63524 122.263 -12.9627 143.584 -18.785Z" fill="url(#paint11_linear_4735_1075)"/>
<path d="M149.436 3.68188C128.482 9.40369 107.671 15.6294 87.0221 22.3534C85.1351 22.9567 83.4576 24.0746 82.1815 25.579C80.9053 27.0834 80.0821 28.9136 79.8061 30.8602C67.6181 121.535 95.7781 187.692 129.372 231.273C143.589 249.915 160.55 266.334 179.686 279.981C187.298 285.303 194.03 289.142 199.332 291.607C201.972 292.843 204.121 293.701 205.778 294.181C206.509 294.401 207.25 294.583 208 294.726C208.742 294.582 209.477 294.4 210.2 294.181C211.872 293.686 214.028 292.828 216.668 291.607C221.948 289.142 228.702 285.281 236.314 279.981C255.45 266.334 272.411 249.915 286.628 231.273C320.222 187.714 348.382 121.535 336.194 30.8602C335.918 28.9136 335.095 27.0834 333.819 25.579C332.542 24.0746 330.865 22.9567 328.978 22.3534C314.656 17.7073 290.478 10.1384 266.564 3.70369C242.144 -2.86188 219.682 -7.72606 208 -7.72606C196.34 -7.72606 173.856 -2.88369 149.436 3.68188Z" fill="url(#paint12_linear_4735_1075)"/>
<path d="M178.838 77.2506L178.841 77.2497C188.971 74.5086 199.888 72 206.5 72C213.111 72 224.028 74.5085 234.158 77.2495C244.569 80.0498 255.058 83.3616 261.221 85.3659L261.224 85.3669C263.976 86.2714 266.417 87.9305 268.265 90.1542C270.114 92.3779 271.295 95.076 271.672 97.9386C277.287 139.922 264.253 171.082 248.41 191.708C241.689 200.529 233.678 208.299 224.645 214.758C221.506 217.012 218.175 218.989 214.691 220.666L214.682 220.67C212.042 221.909 209.055 223 206.5 223C203.944 223 200.966 221.908 198.319 220.671L198.309 220.666C194.825 218.989 191.494 217.012 188.355 214.758C188.354 214.758 188.354 214.757 188.353 214.757L188.937 213.945C179.984 207.543 172.046 199.843 165.385 191.101L178.838 77.2506ZM178.838 77.2506C169.754 79.7405 160.732 82.4465 151.778 85.3661L151.776 85.3669C149.024 86.2714 146.583 87.9305 144.735 90.1542C142.887 92.3777 141.706 95.0754 141.328 97.9376C135.712 139.922 148.747 171.082 164.59 191.708L178.838 77.2506Z" fill="#020617" stroke="#020617" stroke-width="2"/>
<mask id="path-15-outside-2_4735_1075" maskUnits="userSpaceOnUse" x="140" y="72" width="133" height="151" fill="black">
<rect fill="white" x="140" y="72" width="133" height="151"/>
<path fill-rule="evenodd" clip-rule="evenodd" d="M155.045 95.7784C163.828 92.9077 172.679 90.2497 181.591 87.8069C191.978 85.0038 201.541 82.9364 206.5 82.9364C211.469 82.9364 221.022 85.0131 231.409 87.8162C241.58 90.5634 251.863 93.7948 257.955 95.7784C258.757 96.036 259.471 96.5132 260.014 97.1555C260.556 97.7978 260.907 98.5792 261.024 99.4102C266.208 138.122 254.231 166.376 239.942 184.973C233.896 192.932 226.682 199.942 218.543 205.768C215.305 208.031 212.432 209.68 210.187 210.732C209.064 211.253 208.147 211.62 207.436 211.831C207.128 211.924 206.816 212.002 206.5 212.064C206.181 212.002 205.866 211.925 205.555 211.831C204.85 211.626 203.936 211.26 202.813 210.732C200.558 209.68 197.695 208.041 194.457 205.768C186.318 199.942 179.104 192.932 173.058 184.973C158.769 166.367 146.792 138.122 151.976 99.4102C152.093 98.5792 152.444 97.7978 152.986 97.1555C153.529 96.5132 154.243 96.036 155.045 95.7784ZM206.5 73C200.044 73 189.255 75.4678 179.102 78.215C170.034 80.7007 161.027 83.4021 152.088 86.3169C149.514 87.1629 147.232 88.7145 145.504 90.7934C143.776 92.8723 142.672 95.3941 142.319 98.0693C136.743 139.761 149.683 170.66 165.385 191.101C172.046 199.843 179.984 207.543 188.937 213.945C192.029 216.165 195.31 218.113 198.743 219.765C201.372 220.994 204.179 222 206.5 222C208.821 222 211.637 220.994 214.257 219.765C217.69 218.113 220.971 216.165 224.063 213.945C233.016 207.543 240.954 199.843 247.615 191.101C263.317 170.66 276.257 139.761 270.681 98.0693C270.328 95.3941 269.224 92.8723 267.496 90.7934C265.768 88.7145 263.486 87.1629 260.912 86.3169C254.755 84.3147 244.284 81.0088 233.898 78.215C223.745 75.4678 212.956 73 206.5 73ZM206.395 95.15C194.954 95.1637 183.987 99.6913 175.897 107.74C167.807 115.788 163.257 126.7 163.243 138.082C163.257 149.464 167.807 160.376 175.897 168.425C183.987 176.473 194.954 181.001 206.395 181.014C217.836 181.002 228.804 176.475 236.894 168.426C244.984 160.378 249.534 149.465 249.547 138.082C249.533 126.7 244.982 115.788 236.893 107.74C228.803 99.6913 217.835 95.1637 206.395 95.15ZM217.624 120.2C215.454 120.214 213.316 120.719 211.371 121.674C209.426 122.63 207.724 124.013 206.393 125.718C205.063 124.013 203.362 122.63 201.418 121.675C199.474 120.719 197.336 120.214 195.168 120.2C187.078 120.2 180.502 127.126 180.502 135.655V152.553C180.502 153.464 180.866 154.338 181.513 154.982C182.16 155.626 183.038 155.988 183.954 155.988C184.87 155.988 185.748 155.626 186.395 154.982C187.042 154.338 187.406 153.464 187.406 152.553V135.644C187.406 130.904 190.899 127.057 195.191 127.057C199.483 127.057 202.975 130.915 202.975 135.644V152.542C202.975 153.453 203.339 154.326 203.986 154.97C204.634 155.615 205.512 155.976 206.427 155.976C207.343 155.976 208.221 155.615 208.869 154.97C209.516 154.326 209.88 153.453 209.88 152.542V135.644C209.88 130.904 213.372 127.057 217.664 127.057C221.956 127.057 225.449 130.915 225.449 135.644V152.542C225.449 153.453 225.812 154.326 226.46 154.97C227.107 155.615 227.985 155.976 228.901 155.976C229.816 155.976 230.695 155.615 231.342 154.97C231.989 154.326 232.353 153.453 232.353 152.542V135.644C232.29 127.126 225.713 120.2 217.624 120.2Z"/>
</mask>
<path fill-rule="evenodd" clip-rule="evenodd" d="M155.045 95.7784C163.828 92.9077 172.679 90.2497 181.591 87.8069C191.978 85.0038 201.541 82.9364 206.5 82.9364C211.469 82.9364 221.022 85.0131 231.409 87.8162C241.58 90.5634 251.863 93.7948 257.955 95.7784C258.757 96.036 259.471 96.5132 260.014 97.1555C260.556 97.7978 260.907 98.5792 261.024 99.4102C266.208 138.122 254.231 166.376 239.942 184.973C233.896 192.932 226.682 199.942 218.543 205.768C215.305 208.031 212.432 209.68 210.187 210.732C209.064 211.253 208.147 211.62 207.436 211.831C207.128 211.924 206.816 212.002 206.5 212.064C206.181 212.002 205.866 211.925 205.555 211.831C204.85 211.626 203.936 211.26 202.813 210.732C200.558 209.68 197.695 208.041 194.457 205.768C186.318 199.942 179.104 192.932 173.058 184.973C158.769 166.367 146.792 138.122 151.976 99.4102C152.093 98.5792 152.444 97.7978 152.986 97.1555C153.529 96.5132 154.243 96.036 155.045 95.7784ZM206.5 73C200.044 73 189.255 75.4678 179.102 78.215C170.034 80.7007 161.027 83.4021 152.088 86.3169C149.514 87.1629 147.232 88.7145 145.504 90.7934C143.776 92.8723 142.672 95.3941 142.319 98.0693C136.743 139.761 149.683 170.66 165.385 191.101C172.046 199.843 179.984 207.543 188.937 213.945C192.029 216.165 195.31 218.113 198.743 219.765C201.372 220.994 204.179 222 206.5 222C208.821 222 211.637 220.994 214.257 219.765C217.69 218.113 220.971 216.165 224.063 213.945C233.016 207.543 240.954 199.843 247.615 191.101C263.317 170.66 276.257 139.761 270.681 98.0693C270.328 95.3941 269.224 92.8723 267.496 90.7934C265.768 88.7145 263.486 87.1629 260.912 86.3169C254.755 84.3147 244.284 81.0088 233.898 78.215C223.745 75.4678 212.956 73 206.5 73ZM206.395 95.15C194.954 95.1637 183.987 99.6913 175.897 107.74C167.807 115.788 163.257 126.7 163.243 138.082C163.257 149.464 167.807 160.376 175.897 168.425C183.987 176.473 194.954 181.001 206.395 181.014C217.836 181.002 228.804 176.475 236.894 168.426C244.984 160.378 249.534 149.465 249.547 138.082C249.533 126.7 244.982 115.788 236.893 107.74C228.803 99.6913 217.835 95.1637 206.395 95.15ZM217.624 120.2C215.454 120.214 213.316 120.719 211.371 121.674C209.426 122.63 207.724 124.013 206.393 125.718C205.063 124.013 203.362 122.63 201.418 121.675C199.474 120.719 197.336 120.214 195.168 120.2C187.078 120.2 180.502 127.126 180.502 135.655V152.553C180.502 153.464 180.866 154.338 181.513 154.982C182.16 155.626 183.038 155.988 183.954 155.988C184.87 155.988 185.748 155.626 186.395 154.982C187.042 154.338 187.406 153.464 187.406 152.553V135.644C187.406 130.904 190.899 127.057 195.191 127.057C199.483 127.057 202.975 130.915 202.975 135.644V152.542C202.975 153.453 203.339 154.326 203.986 154.97C204.634 155.615 205.512 155.976 206.427 155.976C207.343 155.976 208.221 155.615 208.869 154.97C209.516 154.326 209.88 153.453 209.88 152.542V135.644C209.88 130.904 213.372 127.057 217.664 127.057C221.956 127.057 225.449 130.915 225.449 135.644V152.542C225.449 153.453 225.812 154.326 226.46 154.97C227.107 155.615 227.985 155.976 228.901 155.976C229.816 155.976 230.695 155.615 231.342 154.97C231.989 154.326 232.353 153.453 232.353 152.542V135.644C232.29 127.126 225.713 120.2 217.624 120.2Z" fill="url(#paint13_linear_4735_1075)"/>
<path fill-rule="evenodd" clip-rule="evenodd" d="M155.045 95.7784C163.828 92.9077 172.679 90.2497 181.591 87.8069C191.978 85.0038 201.541 82.9364 206.5 82.9364C211.469 82.9364 221.022 85.0131 231.409 87.8162C241.58 90.5634 251.863 93.7948 257.955 95.7784C258.757 96.036 259.471 96.5132 260.014 97.1555C260.556 97.7978 260.907 98.5792 261.024 99.4102C266.208 138.122 254.231 166.376 239.942 184.973C233.896 192.932 226.682 199.942 218.543 205.768C215.305 208.031 212.432 209.68 210.187 210.732C209.064 211.253 208.147 211.62 207.436 211.831C207.128 211.924 206.816 212.002 206.5 212.064C206.181 212.002 205.866 211.925 205.555 211.831C204.85 211.626 203.936 211.26 202.813 210.732C200.558 209.68 197.695 208.041 194.457 205.768C186.318 199.942 179.104 192.932 173.058 184.973C158.769 166.367 146.792 138.122 151.976 99.4102C152.093 98.5792 152.444 97.7978 152.986 97.1555C153.529 96.5132 154.243 96.036 155.045 95.7784ZM206.5 73C200.044 73 189.255 75.4678 179.102 78.215C170.034 80.7007 161.027 83.4021 152.088 86.3169C149.514 87.1629 147.232 88.7145 145.504 90.7934C143.776 92.8723 142.672 95.3941 142.319 98.0693C136.743 139.761 149.683 170.66 165.385 191.101C172.046 199.843 179.984 207.543 188.937 213.945C192.029 216.165 195.31 218.113 198.743 219.765C201.372 220.994 204.179 222 206.5 222C208.821 222 211.637 220.994 214.257 219.765C217.69 218.113 220.971 216.165 224.063 213.945C233.016 207.543 240.954 199.843 247.615 191.101C263.317 170.66 276.257 139.761 270.681 98.0693C270.328 95.3941 269.224 92.8723 267.496 90.7934C265.768 88.7145 263.486 87.1629 260.912 86.3169C254.755 84.3147 244.284 81.0088 233.898 78.215C223.745 75.4678 212.956 73 206.5 73ZM206.395 95.15C194.954 95.1637 183.987 99.6913 175.897 107.74C167.807 115.788 163.257 126.7 163.243 138.082C163.257 149.464 167.807 160.376 175.897 168.425C183.987 176.473 194.954 181.001 206.395 181.014C217.836 181.002 228.804 176.475 236.894 168.426C244.984 160.378 249.534 149.465 249.547 138.082C249.533 126.7 244.982 115.788 236.893 107.74C228.803 99.6913 217.835 95.1637 206.395 95.15ZM217.624 120.2C215.454 120.214 213.316 120.719 211.371 121.674C209.426 122.63 207.724 124.013 206.393 125.718C205.063 124.013 203.362 122.63 201.418 121.675C199.474 120.719 197.336 120.214 195.168 120.2C187.078 120.2 180.502 127.126 180.502 135.655V152.553C180.502 153.464 180.866 154.338 181.513 154.982C182.16 155.626 183.038 155.988 183.954 155.988C184.87 155.988 185.748 155.626 186.395 154.982C187.042 154.338 187.406 153.464 187.406 152.553V135.644C187.406 130.904 190.899 127.057 195.191 127.057C199.483 127.057 202.975 130.915 202.975 135.644V152.542C202.975 153.453 203.339 154.326 203.986 154.97C204.634 155.615 205.512 155.976 206.427 155.976C207.343 155.976 208.221 155.615 208.869 154.97C209.516 154.326 209.88 153.453 209.88 152.542V135.644C209.88 130.904 213.372 127.057 217.664 127.057C221.956 127.057 225.449 130.915 225.449 135.644V152.542C225.449 153.453 225.812 154.326 226.46 154.97C227.107 155.615 227.985 155.976 228.901 155.976C229.816 155.976 230.695 155.615 231.342 154.97C231.989 154.326 232.353 153.453 232.353 152.542V135.644C232.29 127.126 225.713 120.2 217.624 120.2Z" fill="url(#paint14_linear_4735_1075)"/>
<path d="M181.591 87.8069L181.331 86.8414L181.327 86.8424L181.591 87.8069ZM155.045 95.7784L155.351 96.7305L155.356 96.7289L155.045 95.7784ZM231.409 87.8162L231.669 86.8508L231.669 86.8507L231.409 87.8162ZM257.955 95.7784L257.645 96.7292L257.649 96.7305L257.955 95.7784ZM260.014 97.1555L260.778 96.51L260.014 97.1555ZM261.024 99.4102L262.015 99.2775L262.014 99.2704L261.024 99.4102ZM239.942 184.973L239.149 184.364L239.146 184.369L239.942 184.973ZM218.543 205.768L219.116 206.588L219.125 206.581L218.543 205.768ZM210.187 210.732L210.608 211.639L210.611 211.637L210.187 210.732ZM207.436 211.831L207.151 210.872L207.145 210.874L207.436 211.831ZM206.5 212.064L206.311 213.046L206.501 213.082L206.691 213.045L206.5 212.064ZM205.555 211.831L205.844 210.873L205.834 210.87L205.555 211.831ZM202.813 210.732L203.239 209.827L203.236 209.826L202.813 210.732ZM194.457 205.768L193.875 206.581L193.883 206.587L194.457 205.768ZM173.058 184.973L173.854 184.369L173.851 184.364L173.058 184.973ZM151.976 99.4102L150.986 99.2704L150.985 99.2775L151.976 99.4102ZM152.986 97.1555L152.222 96.51L152.222 96.51L152.986 97.1555ZM179.102 78.215L178.841 77.2497L178.838 77.2506L179.102 78.215ZM152.088 86.3169L151.778 85.3661L151.776 85.3669L152.088 86.3169ZM145.504 90.7934L146.273 91.4326L145.504 90.7934ZM142.319 98.0693L143.311 98.2018L143.311 98.1999L142.319 98.0693ZM165.385 191.101L166.18 190.495L166.178 190.492L165.385 191.101ZM188.937 213.945L189.52 213.132L189.518 213.131L188.937 213.945ZM198.743 219.765L198.309 220.666L198.319 220.671L198.743 219.765ZM214.257 219.765L214.682 220.67L214.691 220.666L214.257 219.765ZM224.063 213.945L223.482 213.131L223.48 213.132L224.063 213.945ZM247.615 191.101L246.822 190.492L246.82 190.495L247.615 191.101ZM270.681 98.0693L269.689 98.1999L269.689 98.2018L270.681 98.0693ZM267.496 90.7934L268.265 90.1542V90.1542L267.496 90.7934ZM260.912 86.3169L261.224 85.3669L261.221 85.3659L260.912 86.3169ZM233.898 78.215L233.636 79.1803L233.638 79.1807L233.898 78.215ZM175.897 107.74L175.192 107.031L175.192 107.031L175.897 107.74ZM206.395 95.15L206.396 94.15L206.394 94.15L206.395 95.15ZM163.243 138.082L162.243 138.081L162.243 138.083L163.243 138.082ZM175.897 168.425L175.192 169.134H175.192L175.897 168.425ZM206.395 181.014L206.394 182.014H206.396L206.395 181.014ZM236.894 168.426L237.6 169.135L236.894 168.426ZM249.547 138.082L250.547 138.083V138.081L249.547 138.082ZM236.893 107.74L237.598 107.031V107.031L236.893 107.74ZM211.371 121.674L211.812 122.572L211.371 121.674ZM217.624 120.2V119.2L217.617 119.2L217.624 120.2ZM206.393 125.718L205.604 126.333L206.393 127.344L207.181 126.333L206.393 125.718ZM201.418 121.675L201.859 120.777L201.859 120.777L201.418 121.675ZM195.168 120.2L195.175 119.2H195.168V120.2ZM181.513 154.982L180.808 155.691H180.808L181.513 154.982ZM186.395 154.982L187.1 155.691L187.1 155.691L186.395 154.982ZM203.986 154.97L204.692 154.261L203.986 154.97ZM208.869 154.97L208.163 154.261H208.163L208.869 154.97ZM226.46 154.97L227.165 154.262L227.165 154.261L226.46 154.97ZM231.342 154.97L230.637 154.261L230.637 154.262L231.342 154.97ZM232.353 135.644H233.353L233.353 135.636L232.353 135.644ZM181.327 86.8424C172.399 89.2895 163.532 91.9521 154.734 94.8279L155.356 96.7289C164.123 93.8632 172.959 91.2099 181.856 88.7713L181.327 86.8424ZM206.5 81.9364C201.386 81.9364 191.694 84.0447 181.331 86.8414L181.852 88.7723C192.262 85.9629 201.696 83.9364 206.5 83.9364V81.9364ZM231.669 86.8507C221.308 84.0543 211.624 81.9364 206.5 81.9364V83.9364C211.313 83.9364 220.737 85.9719 231.148 88.7816L231.669 86.8507ZM258.265 94.8275C252.165 92.8413 241.864 89.6042 231.669 86.8508L231.148 88.7816C241.296 91.5226 251.562 94.7483 257.645 96.7292L258.265 94.8275ZM260.778 96.51C260.113 95.7242 259.241 95.1409 258.26 94.8262L257.649 96.7305C258.274 96.931 258.828 97.3022 259.25 97.801L260.778 96.51ZM262.014 99.2704C261.87 98.2524 261.442 97.2959 260.778 96.51L259.25 97.801C259.671 98.2997 259.943 98.9059 260.034 99.5501L262.014 99.2704ZM240.735 185.583C255.166 166.8 267.238 138.284 262.015 99.2775L260.033 99.543C265.177 137.961 253.295 165.953 239.149 184.364L240.735 185.583ZM219.125 206.581C227.345 200.697 234.631 193.617 240.739 185.578L239.146 184.369C233.16 192.248 226.018 199.187 217.961 204.955L219.125 206.581ZM210.611 211.637C212.918 210.556 215.84 208.877 219.116 206.588L217.97 204.949C214.77 207.185 211.947 208.803 209.762 209.826L210.611 211.637ZM207.72 212.789C208.499 212.558 209.466 212.169 210.608 211.639L209.765 209.825C208.662 210.338 207.795 210.681 207.151 210.872L207.72 212.789ZM206.691 213.045C207.041 212.977 207.386 212.891 207.727 212.787L207.145 210.874C206.87 210.958 206.591 211.027 206.309 211.082L206.691 213.045ZM205.266 212.788C205.61 212.892 205.959 212.978 206.311 213.046L206.689 211.082C206.404 211.027 206.122 210.957 205.844 210.873L205.266 212.788ZM202.388 211.637C203.531 212.174 204.498 212.565 205.276 212.791L205.834 210.87C205.202 210.687 204.342 210.345 203.239 209.827L202.388 211.637ZM193.883 206.587C197.16 208.887 200.073 210.557 202.39 211.638L203.236 209.826C201.043 208.802 198.23 207.195 195.032 204.95L193.883 206.587ZM172.261 185.578C178.369 193.617 185.655 200.697 193.875 206.581L195.039 204.955C186.982 199.187 179.84 192.248 173.854 184.369L172.261 185.578ZM150.985 99.2775C145.762 138.284 157.834 166.791 172.264 185.583L173.851 184.364C159.705 165.943 147.823 137.961 152.967 99.543L150.985 99.2775ZM152.222 96.51C151.558 97.2959 151.13 98.2524 150.986 99.2704L152.966 99.5501C153.057 98.9059 153.329 98.2997 153.75 97.801L152.222 96.51ZM154.74 94.8262C153.759 95.1409 152.887 95.7242 152.222 96.51L153.75 97.801C154.172 97.3022 154.726 96.931 155.351 96.7305L154.74 94.8262ZM179.364 79.1803C189.539 76.427 200.199 74 206.5 74V72C199.888 72 188.971 74.5086 178.841 77.2497L179.364 79.1803ZM152.398 87.2676C161.322 84.3578 170.314 81.661 179.367 79.1794L178.838 77.2506C169.754 79.7405 160.732 82.4465 151.778 85.3661L152.398 87.2676ZM146.273 91.4326C147.88 89.4985 150.004 88.0544 152.4 87.2669L151.776 85.3669C149.024 86.2714 146.583 87.9305 144.735 90.1542L146.273 91.4326ZM143.311 98.1999C143.639 95.7123 144.665 93.3667 146.273 91.4326L144.735 90.1542C142.886 92.3779 141.705 95.076 141.328 97.9386L143.311 98.1999ZM166.178 190.492C150.619 170.237 137.773 139.6 143.311 98.2018L141.328 97.9367C135.712 139.923 148.748 171.084 164.592 191.71L166.178 190.492ZM189.518 213.131C180.647 206.788 172.78 199.157 166.18 190.495L164.589 191.707C171.311 200.529 179.321 208.298 188.355 214.758L189.518 213.131ZM199.177 218.864C195.796 217.237 192.565 215.319 189.52 213.132L188.353 214.757C191.493 217.011 194.824 218.989 198.309 220.666L199.177 218.864ZM206.5 221C204.414 221 201.778 220.08 199.166 218.859L198.319 220.671C200.966 221.908 203.944 223 206.5 223V221ZM213.832 218.86C211.232 220.08 208.586 221 206.5 221V223C209.055 223 212.042 221.909 214.682 220.67L213.832 218.86ZM223.48 213.132C220.435 215.319 217.204 217.237 213.823 218.864L214.691 220.666C218.176 218.989 221.507 217.011 224.647 214.757L223.48 213.132ZM246.82 190.495C240.22 199.157 232.353 206.788 223.482 213.131L224.645 214.758C233.679 208.298 241.689 200.529 248.411 191.707L246.82 190.495ZM269.689 98.2018C275.227 139.6 262.381 170.237 246.822 190.492L248.408 191.71C264.252 171.084 277.288 139.923 271.672 97.9367L269.689 98.2018ZM266.727 91.4326C268.335 93.3667 269.361 95.7123 269.689 98.1999L271.672 97.9386C271.295 95.076 270.114 92.3779 268.265 90.1542L266.727 91.4326ZM260.599 87.2669C262.996 88.0544 265.12 89.4985 266.727 91.4326L268.265 90.1542C266.417 87.9305 263.976 86.2714 261.224 85.3669L260.599 87.2669ZM233.638 79.1807C244 81.9679 254.452 85.2678 260.602 87.2679L261.221 85.3659C255.057 83.3616 244.568 80.0496 234.157 77.2493L233.638 79.1807ZM206.5 74C212.801 74 223.461 76.427 233.636 79.1803L234.159 77.2497C224.029 74.5086 213.112 72 206.5 72V74ZM176.602 108.449C184.504 100.587 195.219 96.1633 206.396 96.15L206.394 94.15C194.69 94.164 183.469 98.7957 175.192 107.031L176.602 108.449ZM164.243 138.083C164.256 126.968 168.701 116.31 176.602 108.449L175.192 107.031C166.914 115.266 162.257 126.432 162.243 138.081L164.243 138.083ZM176.602 167.716C168.701 159.854 164.256 149.197 164.243 138.081L162.243 138.083C162.257 149.732 166.914 160.898 175.192 169.134L176.602 167.716ZM206.396 180.014C195.219 180.001 184.504 175.578 176.602 167.716L175.192 169.134C183.469 177.369 194.69 182 206.394 182.014L206.396 180.014ZM236.189 167.718C228.287 175.58 217.571 180.003 206.394 180.014L206.396 182.014C218.1 182.002 229.322 177.371 237.6 169.135L236.189 167.718ZM248.547 138.081C248.535 149.197 244.091 159.856 236.189 167.718L237.6 169.135C245.877 160.9 250.534 149.732 250.547 138.083L248.547 138.081ZM236.187 108.449C244.089 116.31 248.533 126.968 248.547 138.083L250.547 138.081C250.533 126.432 245.875 115.266 237.598 107.031L236.187 108.449ZM206.394 96.15C217.571 96.1633 228.285 100.587 236.187 108.449L237.598 107.031C229.321 98.7957 218.1 94.164 206.396 94.15L206.394 96.15ZM211.812 122.572C213.622 121.683 215.612 121.213 217.631 121.2L217.617 119.2C215.297 119.215 213.011 119.755 210.93 120.777L211.812 122.572ZM207.181 126.333C208.419 124.747 210.002 123.461 211.812 122.572L210.93 120.777C208.849 121.799 207.028 123.278 205.605 125.103L207.181 126.333ZM200.977 122.572C202.786 123.461 204.368 124.747 205.604 126.333L207.181 125.103C205.759 123.278 203.939 121.8 201.859 120.777L200.977 122.572ZM195.161 121.2C197.179 121.213 199.168 121.683 200.977 122.572L201.859 120.777C199.779 119.755 197.494 119.215 195.175 119.2L195.161 121.2ZM181.502 135.655C181.502 127.628 187.679 121.2 195.168 121.2V119.2C186.477 119.2 179.502 126.623 179.502 135.655H181.502ZM181.502 152.553V135.655H179.502V152.553H181.502ZM182.218 154.273C181.759 153.816 181.502 153.197 181.502 152.553H179.502C179.502 153.731 179.972 154.86 180.808 155.691L182.218 154.273ZM183.954 154.988C183.302 154.988 182.678 154.73 182.218 154.273L180.808 155.691C181.643 156.522 182.775 156.988 183.954 156.988V154.988ZM185.69 154.273C185.23 154.73 184.606 154.988 183.954 154.988V156.988C185.133 156.988 186.265 156.522 187.1 155.691L185.69 154.273ZM186.406 152.553C186.406 153.197 186.149 153.816 185.69 154.273L187.1 155.691C187.936 154.86 188.406 153.731 188.406 152.553H186.406ZM186.406 135.644V152.553H188.406V135.644H186.406ZM195.191 126.057C190.257 126.057 186.406 130.446 186.406 135.644H188.406C188.406 131.362 191.54 128.057 195.191 128.057V126.057ZM203.975 135.644C203.975 130.458 200.126 126.057 195.191 126.057V128.057C198.84 128.057 201.975 131.373 201.975 135.644H203.975ZM203.975 152.542V135.644H201.975V152.542H203.975ZM204.692 154.261C204.232 153.805 203.975 153.186 203.975 152.542H201.975C201.975 153.72 202.446 154.848 203.281 155.679L204.692 154.261ZM206.427 154.976C205.775 154.976 205.151 154.719 204.692 154.261L203.281 155.679C204.116 156.51 205.248 156.976 206.427 156.976V154.976ZM208.163 154.261C207.704 154.719 207.079 154.976 206.427 154.976V156.976C207.607 156.976 208.738 156.51 209.574 155.679L208.163 154.261ZM208.88 152.542C208.88 153.186 208.622 153.805 208.163 154.261L209.574 155.679C210.409 154.848 210.88 153.72 210.88 152.542H208.88ZM208.88 135.644V152.542H210.88V135.644H208.88ZM217.664 126.057C212.73 126.057 208.88 130.446 208.88 135.644H210.88C210.88 131.362 214.014 128.057 217.664 128.057V126.057ZM226.449 135.644C226.449 130.458 222.599 126.057 217.664 126.057V128.057C221.314 128.057 224.449 131.373 224.449 135.644H226.449ZM226.449 152.542V135.644H224.449V152.542H226.449ZM227.165 154.261C226.706 153.805 226.449 153.186 226.449 152.542H224.449C224.449 153.72 224.919 154.848 225.755 155.679L227.165 154.261ZM228.901 154.976C228.249 154.976 227.625 154.719 227.165 154.262L225.755 155.679C226.59 156.51 227.722 156.976 228.901 156.976V154.976ZM230.637 154.262C230.177 154.719 229.553 154.976 228.901 154.976V156.976C230.08 156.976 231.212 156.51 232.047 155.679L230.637 154.262ZM231.353 152.542C231.353 153.186 231.096 153.805 230.637 154.261L232.047 155.679C232.883 154.848 233.353 153.72 233.353 152.542H231.353ZM231.353 135.644V152.542H233.353V135.644H231.353ZM217.624 121.2C225.112 121.2 231.293 127.629 231.353 135.651L233.353 135.636C233.286 126.623 226.315 119.2 217.624 119.2V121.2Z" fill="#020617" mask="url(#path-15-outside-2_4735_1075)"/>
<rect y="251" width="416" height="170" fill="url(#paint15_linear_4735_1075)"/>
</g>
</g>
<defs>
<filter id="filter0_f_4735_1075" x="-74.2727" y="-142" width="560.55" height="579.197" filterUnits="userSpaceOnUse" color-interpolation-filters="sRGB">
<feFlood flood-opacity="0" result="BackgroundImageFix"/>
<feBlend mode="normal" in="SourceGraphic" in2="BackgroundImageFix" result="shape"/>
<feGaussianBlur stdDeviation="100" result="effect1_foregroundBlur_4735_1075"/>
</filter>
<linearGradient id="paint0_linear_4735_1075" x1="14" y1="113.5" x2="155" y2="113.5" gradientUnits="userSpaceOnUse">
<stop stop-color="#020617" stop-opacity="0"/>
<stop offset="1" stop-color="white" stop-opacity="0.15"/>
</linearGradient>
<linearGradient id="paint1_linear_4735_1075" x1="-15" y1="126.5" x2="155" y2="126.5" gradientUnits="userSpaceOnUse">
<stop stop-color="#020617" stop-opacity="0"/>
<stop offset="1" stop-color="white" stop-opacity="0.25"/>
</linearGradient>
<linearGradient id="paint2_linear_4735_1075" x1="0" y1="139.5" x2="155" y2="139.5" gradientUnits="userSpaceOnUse">
<stop stop-color="#020617" stop-opacity="0"/>
<stop offset="1" stop-color="white" stop-opacity="0.35"/>
</linearGradient>
<linearGradient id="paint3_linear_4735_1075" x1="5" y1="152.5" x2="155" y2="152.5" gradientUnits="userSpaceOnUse">
<stop stop-color="#020617" stop-opacity="0"/>
<stop offset="1" stop-color="white" stop-opacity="0.35"/>
</linearGradient>
<linearGradient id="paint4_linear_4735_1075" x1="40" y1="165.5" x2="155" y2="165.5" gradientUnits="userSpaceOnUse">
<stop stop-color="#020617" stop-opacity="0"/>
<stop offset="1" stop-color="white" stop-opacity="0.15"/>
</linearGradient>
<linearGradient id="paint5_linear_4735_1075" x1="0" y1="0.5" x2="141" y2="0.5" gradientUnits="userSpaceOnUse">
<stop stop-color="#020617" stop-opacity="0"/>
<stop offset="1" stop-color="white" stop-opacity="0.15"/>
</linearGradient>
<linearGradient id="paint6_linear_4735_1075" x1="0" y1="0.5" x2="170" y2="0.5" gradientUnits="userSpaceOnUse">
<stop stop-color="#020617" stop-opacity="0"/>
<stop offset="1" stop-color="white" stop-opacity="0.25"/>
</linearGradient>
<linearGradient id="paint7_linear_4735_1075" x1="0" y1="0.5" x2="155" y2="0.5" gradientUnits="userSpaceOnUse">
<stop stop-color="#020617" stop-opacity="0"/>
<stop offset="1" stop-color="white" stop-opacity="0.35"/>
</linearGradient>
<linearGradient id="paint8_linear_4735_1075" x1="0" y1="0.5" x2="150" y2="0.5" gradientUnits="userSpaceOnUse">
<stop stop-color="#020617" stop-opacity="0"/>
<stop offset="1" stop-color="white" stop-opacity="0.35"/>
</linearGradient>
<linearGradient id="paint9_linear_4735_1075" x1="0" y1="0.5" x2="115" y2="0.5" gradientUnits="userSpaceOnUse">
<stop stop-color="#020617" stop-opacity="0"/>
<stop offset="1" stop-color="white" stop-opacity="0.15"/>
</linearGradient>
<linearGradient id="paint10_linear_4735_1075" x1="156" y1="81" x2="258.36" y2="190.5" gradientUnits="userSpaceOnUse">
<stop stop-color="#668E4F"/>
<stop offset="0.5" stop-color="#E290D8"/>
<stop offset="1" stop-color="#D2710D"/>
</linearGradient>
<linearGradient id="paint11_linear_4735_1075" x1="54" y1="96.0482" x2="362" y2="96.0482" gradientUnits="userSpaceOnUse">
<stop offset="0.005" stop-color="#020617" stop-opacity="0"/>
<stop offset="0.49" stop-color="#020617" stop-opacity="0"/>
<stop offset="0.495" stop-color="#020617"/>
<stop offset="0.985" stop-color="#020617" stop-opacity="0"/>
</linearGradient>
<linearGradient id="paint12_linear_4735_1075" x1="54" y1="96.0482" x2="362" y2="96.0482" gradientUnits="userSpaceOnUse">
<stop offset="0.005" stop-color="#020617" stop-opacity="0"/>
<stop offset="0.49" stop-color="#020617" stop-opacity="0"/>
<stop offset="0.495" stop-color="#020617"/>
<stop offset="0.985" stop-color="#020617" stop-opacity="0"/>
</linearGradient>
<linearGradient id="paint13_linear_4735_1075" x1="141" y1="120.679" x2="272.749" y2="120.679" gradientUnits="userSpaceOnUse">
<stop stop-color="#3B5B63"/>
<stop offset="0.5" stop-color="#436E77"/>
<stop offset="0.5" stop-color="#4F868E"/>
<stop offset="1" stop-color="#436E77"/>
</linearGradient>
<linearGradient id="paint14_linear_4735_1075" x1="206.5" y1="141.475" x2="206.5" y2="222" gradientUnits="userSpaceOnUse">
<stop stop-color="#4F868E" stop-opacity="0"/>
<stop offset="1" stop-color="#E290D8"/>
</linearGradient>
<linearGradient id="paint15_linear_4735_1075" x1="208" y1="251" x2="208" y2="299.153" gradientUnits="userSpaceOnUse">
<stop stop-color="#020617" stop-opacity="0.05"/>
<stop offset="1" stop-color="#020617"/>
</linearGradient>
<clipPath id="clip0_4735_1075">
<rect width="405" height="440" fill="white"/>
</clipPath>
<clipPath id="clip1_4735_1075">
<rect width="416" height="420" fill="white" transform="translate(0 1)"/>
</clipPath>
</defs>
</svg>
